<?xml version="1.0" encoding="utf-8"?>
<svg id="master-artboard" viewBox="0 0 1730.099365234375 1574.509521484375" version="1.1" xmlns="http://www.w3.org/2000/svg" x="0px" y="0px" width="1730.099365234375px" height="1574.509521484375px" style="enable-background:new 0 0 2000 2000;"><rect id="ee-background" x="0" y="0" width="1730.099365234375" height="1574.509521484375" style="fill: white; fill-opacity: 0; pointer-events: none;"/>

<path d="M 0 0 H 2000 V 2000 H 0 V 0 Z" class="st0" style="fill: rgb(255, 255, 255); fill-opacity: 0;" transform="matrix(1, 0, 0, 1, -133.36270141601565, -212.74525451660156)"/><g transform="matrix(1, 0, 0, 1, -133.36270141601565, -212.74525451660156)">
			<path class="st1" d="M184.8,864c-5.9,27.5-8.3,55.9-7.4,84.3c19.7-41.7,50-78.1,80.8-112c28.8-31.8,59.6-61.9,86.5-95.3&#10;&#9;&#9;&#9;&#9;c25.9-35.4,44.9-74.9,64.7-113.8c-27.6,6-54.4,15.7-80,30.7C258.9,699,203.4,777.1,184.8,864z" style="fill: rgb(199, 217, 250);"/>
			<path class="st1" d="M1162.3,484.7c19,7.5,38.4,13.5,58.5,17.1c6.5,0.6,12.9,0.8,19.4,0.8c6.6,0,13.3-0.3,19.9-0.9&#10;&#9;&#9;&#9;&#9;c0.5-0.1,1-0.2,1.5-0.3c-30.2-29.2-61-57.9-96.3-78.4c-31.2-18.2-63.6-28.9-98.7-32.3c-6.2-0.6-12.4-0.9-18.7-0.9&#10;&#9;&#9;&#9;&#9;c-20,0-40.1,2.9-59.7,7.8c32.7,13.6,64.1,29.5,95.2,46.5C1109.3,458.4,1135.3,472.6,1162.3,484.7z" style="fill: rgb(199, 217, 250);"/>
			<path class="st1" d="M1300.9,1489.4c-63-16.7-126.5-32.2-191-41.5c-31.1-3.8-62.3-6-93.6-6c-23.3,0-46.5,1.2-69.7,3.8&#10;&#9;&#9;&#9;&#9;c-34.9,5.4-69,14.3-103,24c-66.3,18.9-133.5,38.8-203.1,39.2c-0.6,0-1.3,0-1.9,0c-26.1,0-53-2.5-78.7-8.5&#10;&#9;&#9;&#9;&#9;c1.1,11.7,1.8,23.4,1.8,35.2c0.2,26,19.8,50.9,43.6,50.9c0.6,0,1.1,0,1.7,0c13.4-0.7,25.7-7.3,34.2-17.9&#10;&#9;&#9;&#9;&#9;c131,30.6,265,46.4,398.9,46.4c18,0,36-0.3,54-0.9c83.4-2.7,166.5-11.7,248.9-26.1c56.6-9.9,112.2-23.9,165.8-45.7&#10;&#9;&#9;&#9;&#9;c-4.6-0.8-9.1-1.7-13.6-2.6C1429.8,1526.4,1365.5,1506.6,1300.9,1489.4z" style="fill: rgb(199, 217, 250);"/>
			<path class="st1" d="M1757.5,646c3.8,10.1,7.2,20.4,10.2,30.6c18.3,62.1,23.5,128.6,22.5,193.2c-1,62.6-7.8,124.9-13.8,187.2&#10;&#9;&#9;&#9;&#9;c-6.9,71.3-13.7,142.6-20.6,213.8c-1.9,20.2-3.6,40.4-5.6,60.5c28.1-48.2,50.1-100.2,66.7-155.3c21.6-71.7,33.1-147.4,37-222.8&#10;&#9;&#9;&#9;&#9;c3.8-73.7-3.1-148.8-30.5-216.5C1808.6,700.2,1785.6,669.2,1757.5,646z" style="fill: rgb(199, 217, 250);"/>
			<path class="st1" d="M899.2,372.1c-28-4.5-56.2-7.6-84.5-7.6c-5.3,0-10.7,0.1-16.1,0.3c-67.4,2.9-132.3,19.3-192.7,49.3&#10;&#9;&#9;&#9;&#9;C545.7,444,495.4,489.6,457,544.5c-18.3,26.1-33.2,54.3-47.6,82.7c18.5-4,37.4-6.4,56.6-7.7c43.9-2.8,88.1-0.1,131.9-5.7&#10;&#9;&#9;&#9;&#9;c16.7-3,33.1-7.4,49.2-13.4c4.6-1.7,9.1-3.6,13.6-5.6c1.4-0.6,2.9-1.3,4.3-1.9c7.9-4,15.7-8.1,23.4-12.6&#10;&#9;&#9;&#9;&#9;c31.8-18.4,61.6-40.7,91.1-63.3c57.3-43.8,114.7-87.3,181.5-111c8.8-3.1,17.9-5.9,27.1-8.2c-2.4-1-4.8-2-7.2-3&#10;&#9;&#9;&#9;&#9;C954.6,384.2,927.1,376.7,899.2,372.1z" style="fill: rgb(199, 217, 250);"/>
			<path class="st1" d="M1557,1520.3c-15.9,8.2-31.9,15.5-48.2,22.1c14.4,2.5,28.9,4.4,43.3,5.6c4.6,0.4,9.2,0.5,13.7,0.5&#10;&#9;&#9;&#9;&#9;c14.3,0,28.3-1.6,42.7-3.8c17.9-2.6,35.1-9.2,51.1-17.6c15.7-8.2,30.4-20.1,41.4-34c15.7-19.6,26.5-39,34.2-63.3&#10;&#9;&#9;&#9;&#9;c5.9-18.6,8-38.2,10.5-57.4c1.7-13.7,3.2-27.4,4.5-41.1c-9.5,16.2-19.6,32-30.5,47.2C1676.5,1439.3,1619.9,1488,1557,1520.3z" style="fill: rgb(199, 217, 250);"/>
			<path class="st1" d="M545,1434.8c-1.7-5.1-3.6-10.1-5.3-15.2c0.7,2.3,1.3,4,1.7,5.2c0.5,1.4,0.8,2.6,0.8,2.6c0,0-0.2-0.7-0.8-2.6&#10;&#9;&#9;&#9;&#9;c-0.6-1.8-1.4-4.2-1.9-5.5c-1-2.5-2.1-4.9-3.1-7.4c-4.6-10.6-9.7-20.9-15.2-31c-5.5-10.1-11.9-19.4-17.8-29.1&#10;&#9;&#9;&#9;&#9;c2.6,4.3,3.6,5.9,3.5,5.9c-0.1,0-5.2-7.9-7.1-10.4c-3.7-4.8-7.4-9.5-11.3-14.1c-7.2-8.5-14.8-16.6-22.8-24.3&#10;&#9;&#9;&#9;&#9;c-2.2-2.1-4.4-4.1-6.6-6.1c-3.7-3-7.4-6-11.2-8.9c-35-26.3-74.2-44.2-111-66.9c-20.7-12.7-40-27.3-58.3-43.9&#10;&#9;&#9;&#9;&#9;c-16.7-15.1-30.5-32.9-43.5-51.9c-35.6-52.1-55.6-117.3-57.7-183c-1.3,2.6-2.5,5.3-3.6,8c-10.2,23.6-19.5,47.2-23.8,72.6&#10;&#9;&#9;&#9;&#9;c-4.8,28.4-6.6,54.8-2.8,83.2c3.7,27.3,11.3,52.9,25.1,77c11.9,20.7,28.1,39.7,46.9,54.5c21,16.6,42.7,30.4,66.1,43.3&#10;&#9;&#9;&#9;&#9;c16.1,8.9,32.3,17.7,47.3,28.2c4.8,4.1,9.3,8.4,13.5,13.1c4.5,7,8.4,14.3,11.8,21.9c5.5,13.7,10.9,27.4,17.1,40.8&#10;&#9;&#9;&#9;&#9;c7.6,16.5,18.3,31.6,30.7,44.9c24.3,25.8,57.7,41.6,92.4,42.4c13.6,6.9,27.8,12.6,42.9,17.2c6.2,1.9,12.6,3.6,19,5.1&#10;&#9;&#9;&#9;&#9;c0-0.2,0-0.4-0.1-0.5C556.8,1477.7,551.8,1455.9,545,1434.8z" style="fill: rgb(199, 217, 250);"/>
			<path class="st1" d="M1592.6,1378.2c-0.5,0.5-1,0.9-1.6,1.4C1591.8,1379,1592.4,1378.4,1592.6,1378.2z" style="fill: rgb(199, 217, 250);"/>
			<path class="st1" d="M1665.7,503.9c-28.4-25.4-60.6-45.4-97.3-56.3c-20.3-6-40.6-8.4-61-8.4c-17.8,0-35.7,1.8-53.7,4.7&#10;&#9;&#9;&#9;&#9;c-56.7,8.9-108.4,36-163.5,51.1c-9.5,2.6-19,4.8-28.7,6.6c12.4,12,24.7,24,37.1,35.7c4.2,3.9,8.5,7.8,12.7,11.7&#10;&#9;&#9;&#9;&#9;c-0.2-0.2-0.2-0.2-0.2-0.2c0,0,1.2,1,4.4,3.9c2.3,1.9,4.6,3.9,7,5.8c10.6,8.6,21.6,16.7,33,23.8c4.6,2.9,9.2,5.6,13.9,8.1&#10;&#9;&#9;&#9;&#9;c-0.2-0.1-0.3-0.2-0.2-0.2c0.2,0,1.8,0.8,6,3.1c2.3,1,4.7,2,7,2.9c11.7,4.5,23.8,7.7,36,9.9c12.5,1.5,25,2.2,37.5,2.2&#10;&#9;&#9;&#9;&#9;c1.3,0,2.7,0,4,0c33-0.4,65.9-4.6,98.8-7.5c15.8-1.4,31.4-2.2,47-2.2c19.8,0,39.5,1.4,59.3,4.7c33.9,5.7,65.7,20.8,92.7,43&#10;&#9;&#9;&#9;&#9;c-8.3-22.4-18.5-44.2-30.4-64.7C1710.7,553,1690.1,525.7,1665.7,503.9z" style="fill: rgb(199, 217, 250);"/>
			<path class="st1" d="M1376.8,594c-0.6-0.3-1.1-0.6-1.7-0.9c-0.4-0.2-0.7-0.3-1.1-0.5C1375,593.1,1375.9,593.5,1376.8,594z" style="fill: rgb(199, 217, 250);"/>
			<path class="st1" d="M1369.4,590.2c0.6,0.4,2.2,1.3,3.6,1.9c0.3,0.2,0.7,0.3,1.1,0.5c-0.4-0.2-0.8-0.4-1.2-0.6&#10;&#9;&#9;&#9;&#9;C1371.7,591.4,1370.6,590.8,1369.4,590.2z" style="fill: rgb(199, 217, 250);"/>
			<path class="st1" d="M1314.4,551.6c1.1,0.9,2.1,1.8,3.2,2.8c-0.8-0.7-1.4-1.3-2.1-1.9c-0.3-0.3-0.7-0.5-1-0.8L1314.4,551.6z" style="fill: rgb(199, 217, 250);"/>
			<path class="st1" d="M1311.3,548.8c0.6,0.5,2,1.8,3.1,2.8c-0.1-0.1-0.2-0.2-0.3-0.3C1313.2,550.5,1312.3,549.7,1311.3,548.8z" style="fill: rgb(199, 217, 250);"/>
			<path class="st2" d="M1311.3,548.8c0.9,0.8,1.8,1.7,2.8,2.5c0.1,0.1,0.2,0.2,0.3,0.3l0.1,0.1c0.3,0.3,0.7,0.5,1,0.8&#10;&#9;&#9;&#9;&#9;c-3.2-2.9-4.4-3.9-4.4-3.9C1311.1,548.6,1311.2,548.7,1311.3,548.8z" style="fill: rgb(158, 189, 247);"/>
			<path class="st2" d="M1369.4,590.2c1.1,0.6,2.3,1.2,3.4,1.8c0.4,0.2,0.8,0.4,1.2,0.6c0.4,0.2,0.7,0.3,1.1,0.5&#10;&#9;&#9;&#9;&#9;c-4.2-2.3-5.8-3.1-6-3.1C1369.1,590,1369.2,590.1,1369.4,590.2z" style="fill: rgb(158, 189, 247);"/>
			<path class="st2" d="M542.3,1427.3c0,0-0.4-1.1-0.8-2.6C542,1426.6,542.3,1427.3,542.3,1427.3z" style="fill: rgb(158, 189, 247);"/>
			<path class="st2" d="M1757.5,646c-27-22.3-58.8-37.3-92.7-43c-19.9-3.3-39.6-4.7-59.3-4.7c-15.6,0-31.2,0.8-47,2.2&#10;&#9;&#9;&#9;&#9;c-32.9,2.9-65.8,7.2-98.8,7.5c-1.3,0-2.7,0-4,0c-12.5,0-25-0.6-37.5-2.2c-12.2-2.2-24.3-5.4-36-9.9c-2.4-0.9-4.7-1.9-7-2.9&#10;&#9;&#9;&#9;&#9;c0.5,0.3,1.1,0.6,1.7,0.9c-0.9-0.5-1.8-1-2.8-1.4c-0.3-0.2-0.7-0.3-1.1-0.5c-1.3-0.6-2.9-1.5-3.6-1.9c-4.7-2.5-9.4-5.2-13.9-8.1&#10;&#9;&#9;&#9;&#9;c-11.4-7.1-22.4-15.2-33-23.8c-2.3-1.9-4.7-3.8-7-5.8c0.6,0.6,1.3,1.2,2.1,1.9c-1-0.9-2.1-1.9-3.2-2.8c-1.1-0.9-2.5-2.2-3.1-2.8&#10;&#9;&#9;&#9;&#9;c-4.3-3.8-8.5-7.7-12.7-11.7c-12.4-11.6-24.7-23.7-37.1-35.7c-0.5,0.1-1,0.2-1.5,0.3c-6.6,0.6-13.3,0.9-19.9,0.9&#10;&#9;&#9;&#9;&#9;c-6.5,0-12.9-0.3-19.4-0.8c-20.1-3.6-39.5-9.7-58.5-17.1c-27-12.1-52.9-26.3-78.9-40.4c-31.2-17-62.5-32.9-95.2-46.5&#10;&#9;&#9;&#9;&#9;c-9.2,2.3-18.3,5.1-27.1,8.2c-66.8,23.7-124.3,67.2-181.5,111c-29.5,22.6-59.3,44.9-91.1,63.3c-7.7,4.5-15.5,8.5-23.4,12.6&#10;&#9;&#9;&#9;&#9;c-1.4,0.6-2.9,1.3-4.3,1.9c-4.5,2-9.1,3.8-13.6,5.6c-16.1,6.1-32.5,10.5-49.2,13.4c-43.8,5.6-87.9,2.8-131.9,5.7&#10;&#9;&#9;&#9;&#9;c-19.2,1.2-38.1,3.6-56.6,7.7c-19.8,39-38.7,78.4-64.7,113.8c-27,33.4-57.7,63.5-86.5,95.3c-30.8,33.9-61.1,70.3-80.8,112&#10;&#9;&#9;&#9;&#9;c2.1,65.7,22,130.9,57.7,183c13,19,26.8,36.8,43.5,51.9c18.3,16.6,37.6,31.2,58.3,43.9c36.8,22.6,76.1,40.5,111,66.9&#10;&#9;&#9;&#9;&#9;c3.8,2.9,7.5,5.9,11.2,8.9c2.2,2,4.4,4,6.6,6.1c8,7.6,15.6,15.7,22.8,24.3c3.9,4.6,7.7,9.3,11.3,14.1c1.9,2.4,6.9,10.4,7.1,10.4&#10;&#9;&#9;&#9;&#9;c0.1,0-0.9-1.6-3.5-5.9c5.9,9.7,12.3,19,17.8,29.1c5.5,10,10.6,20.4,15.2,31c1.1,2.4,2.1,4.9,3.1,7.4c0.5,1.2,1.3,3.6,1.9,5.5&#10;&#9;&#9;&#9;&#9;c-0.4-1.2-0.9-2.9-1.7-5.2c1.6,5.1,3.6,10.1,5.3,15.2c6.8,21.1,11.7,43,14.8,65.2c0,0.2,0,0.4,0.1,0.5&#10;&#9;&#9;&#9;&#9;c25.7,5.9,52.5,8.5,78.7,8.5c0.6,0,1.3,0,1.9,0c69.6-0.3,136.8-20.3,203.1-39.2c34-9.7,68.1-18.6,103-24&#10;&#9;&#9;&#9;&#9;c23.2-2.6,46.4-3.8,69.7-3.8c31.3,0,62.5,2.2,93.6,6c64.5,9.4,128,24.8,191,41.5c64.6,17.1,128.8,36.9,194.3,50.4&#10;&#9;&#9;&#9;&#9;c4.5,0.9,9,1.8,13.6,2.6c16.3-6.6,32.4-13.9,48.2-22.1c62.9-32.3,119.5-81,162.7-141.7c10.9-15.3,21-31,30.5-47.2&#10;&#9;&#9;&#9;&#9;c1.9-20.2,3.6-40.4,5.6-60.5c6.9-71.3,13.7-142.6,20.6-213.8c6-62.3,12.8-124.6,13.8-187.2c1-64.6-4.1-131-22.5-193.2&#10;&#9;&#9;&#9;&#9;C1764.7,666.3,1761.3,656.1,1757.5,646z M1498.6,1438.4c0,0,1-0.5,4-1.7C1500.7,1437.6,1498.6,1438.4,1498.6,1438.4z&#10;&#9;&#9;&#9;&#9; M1591.1,1379.6c0.5-0.4,1.1-0.9,1.6-1.4C1592.4,1378.4,1591.8,1379,1591.1,1379.6z M1678.3,711.7c0.1,0,2,0.7,3.9,1.6&#10;&#9;&#9;&#9;&#9;C1679.2,712.1,1678.2,711.7,1678.3,711.7z M1705,728c0.1,0.1,0.3,0.2,0.4,0.3c1,0.9,2,1.9,3,2.8c0.6,0.6,1,1.1,0.9,1.1&#10;&#9;&#9;&#9;&#9;C1709.3,732.2,1708.1,731.1,1705,728z" style="fill: rgb(158, 189, 247);"/>
			<path class="st2" d="M1592.6,1378.2c-0.5,0.5-1,0.9-1.6,1.4C1591.8,1379,1592.4,1378.4,1592.6,1378.2z" style="fill: rgb(158, 189, 247);"/>
			<path class="st2" d="M1682.2,713.3c-1.8-0.8-3.8-1.6-3.9-1.6C1678.2,711.7,1679.2,712.1,1682.2,713.3z" style="fill: rgb(158, 189, 247);"/>
			<path class="st2" d="M1705.4,728.3c-0.1-0.1-0.3-0.2-0.4-0.3c3.1,3.1,4.3,4.2,4.4,4.2c0.1,0-0.3-0.4-0.9-1.1&#10;&#9;&#9;&#9;&#9;C1707.5,730.2,1706.4,729.3,1705.4,728.3z" style="fill: rgb(158, 189, 247);"/>
			<path class="st2" d="M1502.6,1436.7c-2.9,1.3-4,1.7-4,1.7C1498.6,1438.4,1500.7,1437.6,1502.6,1436.7z" style="fill: rgb(158, 189, 247);"/>
		</g><g transform="matrix(1, 0, 0, 1, -133.36270141601565, -212.74525451660156)">
				<path class="st3" d="M832.2,330.2H379.7c-10.1,0-18.2,8.2-18.2,18.2v327.9c0,10.1,8.2,18.2,18.2,18.2h452.5&#10;&#9;&#9;&#9;&#9;&#9;c10.1,0,18.2-8.2,18.2-18.2V348.4C850.5,338.4,842.3,330.2,832.2,330.2z" style="fill: rgb(228, 232, 239);"/>
				<path class="st0" d="M804.7,380.3H407.3c-3.8,0-6.9,3.1-6.9,6.9V654c0,3.8,3.1,6.9,6.9,6.9h397.4c3.8,0,6.9-3.1,6.9-6.9V387.2&#10;&#9;&#9;&#9;&#9;&#9;C811.6,383.4,808.5,380.3,804.7,380.3z" style="fill: rgb(255, 255, 255);"/>
				
					<path d="M 735.300013 355.399994 A 9.1 9.1 0 0 1 726.200012 364.499994 A 9.1 9.1 0 0 1 717.100012 355.399994 A 9.1 9.1 0 0 1 726.200012 346.299994 A 9.1 9.1 0 0 1 735.300013 355.399994 Z" transform="matrix(0.9732 -0.2298 0.2298 0.9732 -62.2233 176.3531)" class="st0" style="fill: rgb(255, 255, 255);"/>
				
					<path d="M 772.199976 355.399994 A 9.1 9.1 0 0 1 763.099976 364.499994 A 9.1 9.1 0 0 1 753.999975 355.399994 A 9.1 9.1 0 0 1 763.099976 346.299994 A 9.1 9.1 0 0 1 772.199976 355.399994 Z" transform="matrix(0.9732 -0.2298 0.2298 0.9732 -61.2357 184.8346)" class="st0" style="fill: rgb(255, 255, 255);"/>
				<path d="M 809.1 355.399994 A 9.1 9.1 0 0 1 800 364.499994 A 9.1 9.1 0 0 1 790.9 355.399994 A 9.1 9.1 0 0 1 800 346.299994 A 9.1 9.1 0 0 1 809.1 355.399994 Z" class="st0" style="fill: rgb(255, 255, 255);"/>
				<path d="M 428.100006 404.5 H 531.500008 V 507.900002 H 428.100006 V 404.5 Z" class="st4" style="fill: rgb(239, 241, 244);"/>
				<path d="M 554.299988 404.5 H 657.699989 V 507.900002 H 554.299988 V 404.5 Z" class="st5" style="fill: rgb(175, 197, 224);"/>
				<path d="M 680.5 404.5 H 783.900002 V 507.900002 H 680.5 V 404.5 Z" class="st4" style="fill: rgb(239, 241, 244);"/>
				<path d="M 554.299988 526.200012 H 657.699989 V 629.600014 H 554.299988 V 526.200012 Z" class="st4" style="fill: rgb(239, 241, 244);"/>
				<path d="M 680.5 526.200012 H 783.900002 V 629.600014 H 680.5 V 526.200012 Z" class="st3" style="fill: rgb(228, 232, 239);"/>
			</g><path class="st4" d="M467.3,552.5H241.4c-15.2,0-27.6,12.4-27.6,27.6v254.3c0,15.2,12.4,27.6,27.6,27.6h225.9&#10;&#9;&#9;&#9;&#9;&#9;c15.2,0,27.6-12.4,27.6-27.6V580.1C494.9,564.9,482.5,552.5,467.3,552.5z" style="fill: rgb(239, 241, 244);" transform="matrix(1, 0, 0, 1, -133.36270141601565, -212.74525451660156)"/><linearGradient id="SVGID_1_" gradientUnits="userSpaceOnUse" x1="231.5414" y1="711.9976" x2="477.1161" y2="711.9976">
					<stop offset="0" style="stop-color:#A0BDE5"/>
					<stop offset="1" style="stop-color:#6ED1CE"/>
				</linearGradient><path class="st6" d="M461.7,586.6H247c-8.5,0-15.4,6.9-15.4,15.4V822c0,8.5,6.9,15.4,15.4,15.4h214.7c8.5,0,15.4-6.9,15.4-15.4&#10;&#9;&#9;&#9;&#9;&#9;V602C477.1,593.5,470.2,586.6,461.7,586.6z" style="fill: url('#SVGID_1_');" transform="matrix(1, 0, 0, 1, -133.36270141601565, -212.74525451660156)"/><path d="M 307.299988 566.900024 H 401.399986 V 570.400024 H 307.299988 V 566.900024 Z" class="st7" style="fill: rgb(209, 215, 224);" transform="matrix(1, 0, 0, 1, -133.36270141601565, -212.74525451660156)"/><path d="M 401.299988 679.5 A 47 47 0 0 1 354.299988 726.5 A 47 47 0 0 1 307.299988 679.5 A 47 47 0 0 1 354.299988 632.5 A 47 47 0 0 1 401.299988 679.5 Z" class="st0" style="fill: rgb(255, 255, 255);" transform="matrix(1, 0, 0, 1, -133.36270141601565, -212.74525451660156)"/><path d="M 267.899994 749.099976 H 284.399994 V 765.599976 H 267.899994 V 749.099976 Z" class="st0" style="fill: rgb(255, 255, 255);" transform="matrix(1, 0, 0, 1, -133.36270141601565, -212.74525451660156)"/><path d="M 297 749.099976 H 427.300003 V 752.399976 H 297 V 749.099976 Z" class="st0" style="fill: rgb(255, 255, 255);" transform="matrix(1, 0, 0, 1, -133.36270141601565, -212.74525451660156)"/><path d="M 297 758.299988 H 438.899994 V 761.599988 H 297 V 758.299988 Z" class="st0" style="fill: rgb(255, 255, 255);" transform="matrix(1, 0, 0, 1, -133.36270141601565, -212.74525451660156)"/><path d="M 297 767.5 H 433 V 770.8 H 297 V 767.5 Z" class="st0" style="fill: rgb(255, 255, 255);" transform="matrix(1, 0, 0, 1, -133.36270141601565, -212.74525451660156)"/><path d="M 297 776.599976 H 438 V 779.899976 H 297 V 776.599976 Z" class="st0" style="fill: rgb(255, 255, 255);" transform="matrix(1, 0, 0, 1, -133.36270141601565, -212.74525451660156)"/><linearGradient id="SVGID_2_" gradientUnits="userSpaceOnUse" x1="1476.2158" y1="486.9183" x2="1913.9561" y2="486.9183">
					<stop offset="0" style="stop-color:#A0BDE5"/>
					<stop offset="1" style="stop-color:#6ED1CE"/>
				</linearGradient><path class="st8" d="M1775.4,275.5h-397c-11.3,0-20.4,9.1-20.4,20.4V678c0,11.3,9.1,20.4,20.4,20.4h397&#10;&#9;&#9;&#9;&#9;&#9;c11.3,0,20.4-9.1,20.4-20.4V295.9C1795.8,284.6,1786.7,275.5,1775.4,275.5z" style="fill: url('#SVGID_2_');" transform="matrix(1, 0, 0, 1, -133.36270141601565, -212.74525451660156)"/><path d="M 1517.900024 289.899994 H 1627.600021 V 296.199994 H 1517.900024 V 289.899994 Z" class="st0" style="fill: rgb(255, 255, 255);" transform="matrix(1, 0, 0, 1, -133.36270141601565, -212.74525451660156)"/><path class="st9" d="M1753.8,317h-353.7c-7.2,0-13,5.8-13,13v139.9c0,7.2,5.8,13,13,13h353.7c7.2,0,13-5.8,13-13V330&#10;&#9;&#9;&#9;&#9;&#9;C1766.8,322.8,1761,317,1753.8,317z" style="fill: rgb(233, 237, 244);" transform="matrix(1, 0, 0, 1, -133.36270141601565, -212.74525451660156)"/><path class="st9" d="M1753.8,497.7h-353.7c-7.2,0-13,5.8-13,13v151.1c0,7.2,5.8,13,13,13h353.7c7.2,0,13-5.8,13-13V510.7&#10;&#9;&#9;&#9;&#9;&#9;C1766.8,503.5,1761,497.7,1753.8,497.7z" style="fill: rgb(233, 237, 244);" transform="matrix(1, 0, 0, 1, -133.36270141601565, -212.74525451660156)"/><path d="M 1553.100048 400.5 A 60.799999 60.799999 0 0 1 1492.300049 461.299999 A 60.799999 60.799999 0 0 1 1431.50005 400.5 A 60.799999 60.799999 0 0 1 1492.300049 339.700001 A 60.799999 60.799999 0 0 1 1553.100048 400.5 Z" class="st0" style="fill: rgb(255, 255, 255);" transform="matrix(1, 0, 0, 1, -133.36270141601565, -212.74525451660156)"/><path d="M 1583.099976 355 H 1722.299973 V 367.9 H 1583.099976 V 355 Z" class="st0" style="fill: rgb(255, 255, 255);" transform="matrix(1, 0, 0, 1, -133.36270141601565, -212.74525451660156)"/><path d="M 1583.099976 380.299988 H 1722.299973 V 386.799988 H 1583.099976 V 380.299988 Z" class="st0" style="fill: rgb(255, 255, 255);" transform="matrix(1, 0, 0, 1, -133.36270141601565, -212.74525451660156)"/><path d="M 1583.099976 396.100006 H 1722.299973 V 402.600006 H 1583.099976 V 396.100006 Z" class="st0" style="fill: rgb(255, 255, 255);" transform="matrix(1, 0, 0, 1, -133.36270141601565, -212.74525451660156)"/><path d="M 1583.099976 411.899994 H 1722.299973 V 418.399994 H 1583.099976 V 411.899994 Z" class="st0" style="fill: rgb(255, 255, 255);" transform="matrix(1, 0, 0, 1, -133.36270141601565, -212.74525451660156)"/><path d="M 1583.099976 427.700012 H 1722.299973 V 434.200012 H 1583.099976 V 427.700012 Z" class="st0" style="fill: rgb(255, 255, 255);" transform="matrix(1, 0, 0, 1, -133.36270141601565, -212.74525451660156)"/><path d="M 1583.099976 443.600006 H 1722.299973 V 450.100006 H 1583.099976 V 443.600006 Z" class="st0" style="fill: rgb(255, 255, 255);" transform="matrix(1, 0, 0, 1, -133.36270141601565, -212.74525451660156)"/><path class="st0" d="M1606.7,563.8h-532.2c-11.3,0-20.4,9.1-20.4,20.4v397c0,11.3,9.1,20.4,20.4,20.4h532.2&#10;&#9;&#9;&#9;&#9;&#9;c11.3,0,20.4-9.1,20.4-20.4v-397C1627.1,572.9,1618,563.8,1606.7,563.8z" style="fill: rgb(255, 255, 255);" transform="matrix(1, 0, 0, 1, -133.36270141601565, -212.74525451660156)"/><path class="st3" d="M1240,599.2h-138.3c-4,0-7.3,3.3-7.3,7.3v352.4c0,4,3.3,7.3,7.3,7.3H1240c4,0,7.3-3.3,7.3-7.3V606.5&#10;&#9;&#9;&#9;&#9;&#9;C1247.3,602.4,1244.1,599.2,1240,599.2z" style="fill: rgb(228, 232, 239);" transform="matrix(1, 0, 0, 1, -133.36270141601565, -212.74525451660156)"/><path d="M 1208.700024 695.700012 A 37.799999 37.799999 0 0 1 1170.900024 733.500011 A 37.799999 37.799999 0 0 1 1133.100025 695.700012 A 37.799999 37.799999 0 0 1 1170.900024 657.900013 A 37.799999 37.799999 0 0 1 1208.700024 695.700012 Z" transform="matrix(0.9239000082015991, -0.3827000856399536, 0.3827000856399536, 0.9239000082015991, -310.47509765625, 288.2861328125)" class="st5" style="fill: rgb(175, 197, 224);"/><path d="M 1142.599976 742.900024 H 1199.199974 V 748.200025 H 1142.599976 V 742.900024 Z" class="st5" style="fill: rgb(175, 197, 224);" transform="matrix(1, 0, 0, 1, -133.36270141601565, -212.74525451660156)"/><path d="M 1133.099976 757 H 1208.699974 V 761.6 H 1133.099976 V 757 Z" class="st5" style="fill: rgb(175, 197, 224);" transform="matrix(1, 0, 0, 1, -133.36270141601565, -212.74525451660156)"/><path d="M 1208.700024 841.599976 A 37.799999 37.799999 0 0 1 1170.900024 879.399975 A 37.799999 37.799999 0 0 1 1133.100025 841.599976 A 37.799999 37.799999 0 0 1 1170.900024 803.799976 A 37.799999 37.799999 0 0 1 1208.700024 841.599976 Z" transform="matrix(0.9819999933242798, -0.18910002708435059, 0.18910002708435059, 0.9819999933242798, -271.3872985839844, 23.860244750976562)" class="st5" style="fill: rgb(175, 197, 224);"/><path d="M 1142.599976 888.799988 H 1199.199974 V 894.099988 H 1142.599976 V 888.799988 Z" class="st5" style="fill: rgb(175, 197, 224);" transform="matrix(1, 0, 0, 1, -133.36270141601565, -212.74525451660156)"/><path d="M 1133.099976 902.900024 H 1208.699974 V 907.500024 H 1133.099976 V 902.900024 Z" class="st5" style="fill: rgb(175, 197, 224);" transform="matrix(1, 0, 0, 1, -133.36270141601565, -212.74525451660156)"/><path class="st4" d="M1589.2,863.5h-315.3c-4.6,0-8.3,3.7-8.3,8.3v83.9c0,4.6,3.7,8.3,8.3,8.3h315.3c4.6,0,8.3-3.7,8.3-8.3&#10;&#9;&#9;&#9;&#9;&#9;v-83.9C1597.5,867.2,1593.8,863.5,1589.2,863.5z" style="fill: rgb(239, 241, 244);" transform="matrix(1, 0, 0, 1, -133.36270141601565, -212.74525451660156)"/><path d="M 1277.599976 624.400024 H 1296.599976 V 643.400024 H 1277.599976 V 624.400024 Z" class="st4" style="fill: rgb(239, 241, 244);" transform="matrix(1, 0, 0, 1, -133.36270141601565, -212.74525451660156)"/><path d="M 1321.900024 625.400024 H 1488.900024 V 627.900024 H 1321.900024 V 625.400024 Z" class="st4" style="fill: rgb(239, 241, 244);" transform="matrix(1, 0, 0, 1, -133.36270141601565, -212.74525451660156)"/><path d="M 1321.900024 632.700012 H 1531.800018 V 635.200012 H 1321.900024 V 632.700012 Z" class="st4" style="fill: rgb(239, 241, 244);" transform="matrix(1, 0, 0, 1, -133.36270141601565, -212.74525451660156)"/><path d="M 1321.900024 640 H 1521.200027 V 642.5 H 1321.900024 V 640 Z" class="st4" style="fill: rgb(239, 241, 244);" transform="matrix(1, 0, 0, 1, -133.36270141601565, -212.74525451660156)"/><path d="M 1277.599976 672.599976 H 1296.599976 V 691.599976 H 1277.599976 V 672.599976 Z" class="st4" style="fill: rgb(239, 241, 244);" transform="matrix(1, 0, 0, 1, -133.36270141601565, -212.74525451660156)"/><path d="M 1321.900024 673.5 H 1488.900024 V 676 H 1321.900024 V 673.5 Z" class="st4" style="fill: rgb(239, 241, 244);" transform="matrix(1, 0, 0, 1, -133.36270141601565, -212.74525451660156)"/><path d="M 1321.900024 680.900024 H 1531.800018 V 683.400024 H 1321.900024 V 680.900024 Z" class="st4" style="fill: rgb(239, 241, 244);" transform="matrix(1, 0, 0, 1, -133.36270141601565, -212.74525451660156)"/><path d="M 1321.900024 688.200012 H 1521.200027 V 690.700012 H 1321.900024 V 688.200012 Z" class="st4" style="fill: rgb(239, 241, 244);" transform="matrix(1, 0, 0, 1, -133.36270141601565, -212.74525451660156)"/><path d="M 1277.599976 720.799988 H 1296.599976 V 739.799988 H 1277.599976 V 720.799988 Z" class="st4" style="fill: rgb(239, 241, 244);" transform="matrix(1, 0, 0, 1, -133.36270141601565, -212.74525451660156)"/><path d="M 1321.900024 721.700012 H 1488.900024 V 724.200012 H 1321.900024 V 721.700012 Z" class="st4" style="fill: rgb(239, 241, 244);" transform="matrix(1, 0, 0, 1, -133.36270141601565, -212.74525451660156)"/><path d="M 1321.900024 729 H 1531.800018 V 731.5 H 1321.900024 V 729 Z" class="st4" style="fill: rgb(239, 241, 244);" transform="matrix(1, 0, 0, 1, -133.36270141601565, -212.74525451660156)"/><path d="M 1321.900024 736.299988 H 1521.200027 V 738.799988 H 1321.900024 V 736.299988 Z" class="st4" style="fill: rgb(239, 241, 244);" transform="matrix(1, 0, 0, 1, -133.36270141601565, -212.74525451660156)"/><path d="M 1277.599976 768.900024 H 1296.599976 V 787.900024 H 1277.599976 V 768.900024 Z" class="st4" style="fill: rgb(239, 241, 244);" transform="matrix(1, 0, 0, 1, -133.36270141601565, -212.74525451660156)"/><path d="M 1321.900024 769.900024 H 1488.900024 V 772.400024 H 1321.900024 V 769.900024 Z" class="st4" style="fill: rgb(239, 241, 244);" transform="matrix(1, 0, 0, 1, -133.36270141601565, -212.74525451660156)"/><path d="M 1321.900024 777.200012 H 1531.800018 V 779.700012 H 1321.900024 V 777.200012 Z" class="st4" style="fill: rgb(239, 241, 244);" transform="matrix(1, 0, 0, 1, -133.36270141601565, -212.74525451660156)"/><path d="M 1321.900024 784.5 H 1521.200027 V 787 H 1321.900024 V 784.5 Z" class="st4" style="fill: rgb(239, 241, 244);" transform="matrix(1, 0, 0, 1, -133.36270141601565, -212.74525451660156)"/><path d="M 1277.599976 817.099976 H 1296.599976 V 836.099976 H 1277.599976 V 817.099976 Z" class="st4" style="fill: rgb(239, 241, 244);" transform="matrix(1, 0, 0, 1, -133.36270141601565, -212.74525451660156)"/><path d="M 1321.900024 818 H 1488.900024 V 820.5 H 1321.900024 V 818 Z" class="st4" style="fill: rgb(239, 241, 244);" transform="matrix(1, 0, 0, 1, -133.36270141601565, -212.74525451660156)"/><path d="M 1321.900024 825.400024 H 1531.800018 V 827.900024 H 1321.900024 V 825.400024 Z" class="st4" style="fill: rgb(239, 241, 244);" transform="matrix(1, 0, 0, 1, -133.36270141601565, -212.74525451660156)"/><path d="M 1321.900024 832.700012 H 1521.200027 V 835.200012 H 1321.900024 V 832.700012 Z" class="st4" style="fill: rgb(239, 241, 244);" transform="matrix(1, 0, 0, 1, -133.36270141601565, -212.74525451660156)"/><path d="M 1290.599976 881.299988 H 1545.299973 V 884.499988 H 1290.599976 V 881.299988 Z" class="st0" style="fill: rgb(255, 255, 255);" transform="matrix(1, 0, 0, 1, -133.36270141601565, -212.74525451660156)"/><path d="M 1290.599976 891.599976 H 1563.099976 V 894.799976 H 1290.599976 V 891.599976 Z" class="st0" style="fill: rgb(255, 255, 255);" transform="matrix(1, 0, 0, 1, -133.36270141601565, -212.74525451660156)"/><path d="M 1290.599976 901.900024 H 1572.599976 V 905.100024 H 1290.599976 V 901.900024 Z" class="st0" style="fill: rgb(255, 255, 255);" transform="matrix(1, 0, 0, 1, -133.36270141601565, -212.74525451660156)"/><path d="M 1290.599976 912.099976 H 1561.899963 V 915.299976 H 1290.599976 V 912.099976 Z" class="st0" style="fill: rgb(255, 255, 255);" transform="matrix(1, 0, 0, 1, -133.36270141601565, -212.74525451660156)"/><path d="M 1290.599976 922.400024 H 1561.899963 V 925.600024 H 1290.599976 V 922.400024 Z" class="st0" style="fill: rgb(255, 255, 255);" transform="matrix(1, 0, 0, 1, -133.36270141601565, -212.74525451660156)"/><path d="M 1290.599976 932.700012 H 1555.899963 V 935.900012 H 1290.599976 V 932.700012 Z" class="st0" style="fill: rgb(255, 255, 255);" transform="matrix(1, 0, 0, 1, -133.36270141601565, -212.74525451660156)"/><path d="M 1290.599976 943 H 1545.299973 V 946.2 H 1290.599976 V 943 Z" class="st0" style="fill: rgb(255, 255, 255);" transform="matrix(1, 0, 0, 1, -133.36270141601565, -212.74525451660156)"/><path class="st0" d="M1722.3,710.6c-1.5,0-2.6,1.2-2.6,2.6v6.3c0,1.5,1.2,2.6,2.6,2.6s2.6-1.2,2.6-2.6v-6.3&#10;&#9;&#9;&#9;&#9;&#9;C1725,711.8,1723.8,710.6,1722.3,710.6z" style="fill: rgb(255, 255, 255);" transform="matrix(1, 0, 0, 1, -133.36270141601565, -212.74525451660156)"/><path class="st0" d="M1722.3,729.4c-1.5,0-2.6,1.2-2.6,2.6v12.4c0,1.5,1.2,2.6,2.6,2.6s2.6-1.2,2.6-2.6V732&#10;&#9;&#9;&#9;&#9;&#9;C1725,730.5,1723.8,729.4,1722.3,729.4z" style="fill: rgb(255, 255, 255);" transform="matrix(1, 0, 0, 1, -133.36270141601565, -212.74525451660156)"/><path class="st0" d="M1722.3,878.3c-1.5,0-2.6,1.2-2.6,2.6v12.4c0,1.5,1.2,2.6,2.6,2.6s2.6-1.2,2.6-2.6V881&#10;&#9;&#9;&#9;&#9;&#9;C1725,879.5,1723.8,878.3,1722.3,878.3z" style="fill: rgb(255, 255, 255);" transform="matrix(1, 0, 0, 1, -133.36270141601565, -212.74525451660156)"/><path class="st0" d="M1722.3,828.7c-1.5,0-2.6,1.2-2.6,2.6v12.4c0,1.5,1.2,2.6,2.6,2.6s2.6-1.2,2.6-2.6v-12.4&#10;&#9;&#9;&#9;&#9;&#9;C1725,829.9,1723.8,828.7,1722.3,828.7z" style="fill: rgb(255, 255, 255);" transform="matrix(1, 0, 0, 1, -133.36270141601565, -212.74525451660156)"/><path class="st0" d="M1722.3,853.5c-1.5,0-2.6,1.2-2.6,2.6v12.4c0,1.5,1.2,2.6,2.6,2.6s2.6-1.2,2.6-2.6v-12.4&#10;&#9;&#9;&#9;&#9;&#9;C1725,854.7,1723.8,853.5,1722.3,853.5z" style="fill: rgb(255, 255, 255);" transform="matrix(1, 0, 0, 1, -133.36270141601565, -212.74525451660156)"/><path class="st0" d="M1722.3,754.2c-1.5,0-2.6,1.2-2.6,2.6v12.4c0,1.5,1.2,2.6,2.6,2.6s2.6-1.2,2.6-2.6v-12.4&#10;&#9;&#9;&#9;&#9;&#9;C1725,755.4,1723.8,754.2,1722.3,754.2z" style="fill: rgb(255, 255, 255);" transform="matrix(1, 0, 0, 1, -133.36270141601565, -212.74525451660156)"/><path class="st0" d="M1722.3,803.9c-1.5,0-2.6,1.2-2.6,2.6v12.4c0,1.5,1.2,2.6,2.6,2.6s2.6-1.2,2.6-2.6v-12.4&#10;&#9;&#9;&#9;&#9;&#9;C1725,805,1723.8,803.9,1722.3,803.9z" style="fill: rgb(255, 255, 255);" transform="matrix(1, 0, 0, 1, -133.36270141601565, -212.74525451660156)"/><path class="st0" d="M1722.3,779c-1.5,0-2.6,1.2-2.6,2.6v12.4c0,1.5,1.2,2.6,2.6,2.6s2.6-1.2,2.6-2.6v-12.4&#10;&#9;&#9;&#9;&#9;&#9;C1725,780.2,1723.8,779,1722.3,779z" style="fill: rgb(255, 255, 255);" transform="matrix(1, 0, 0, 1, -133.36270141601565, -212.74525451660156)"/><path class="st0" d="M1722.3,903.2c-1.5,0-2.6,1.2-2.6,2.6v3.7h-3.7c-1.5,0-2.6,1.2-2.6,2.6c0,1.5,1.2,2.6,2.6,2.6h9v-9&#10;&#9;&#9;&#9;&#9;&#9;C1725,904.4,1723.8,903.2,1722.3,903.2z" style="fill: rgb(255, 255, 255);" transform="matrix(1, 0, 0, 1, -133.36270141601565, -212.74525451660156)"/><path class="st0" d="M1672.2,909.5h-14.6c-1.5,0-2.6,1.2-2.6,2.6c0,1.5,1.2,2.6,2.6,2.6h14.6c1.5,0,2.6-1.2,2.6-2.6&#10;&#9;&#9;&#9;&#9;&#9;C1674.8,910.7,1673.6,909.5,1672.2,909.5z" style="fill: rgb(255, 255, 255);" transform="matrix(1, 0, 0, 1, -133.36270141601565, -212.74525451660156)"/><path class="st0" d="M1701.4,909.5h-14.6c-1.5,0-2.6,1.2-2.6,2.6c0,1.5,1.2,2.6,2.6,2.6h14.6c1.5,0,2.6-1.2,2.6-2.6&#10;&#9;&#9;&#9;&#9;&#9;C1704,910.7,1702.9,909.5,1701.4,909.5z" style="fill: rgb(255, 255, 255);" transform="matrix(1, 0, 0, 1, -133.36270141601565, -212.74525451660156)"/><path class="st0" d="M1643,909.5h-6.3c-1.5,0-2.6,1.2-2.6,2.6c0,1.5,1.2,2.6,2.6,2.6h6.3c1.5,0,2.6-1.2,2.6-2.6&#10;&#9;&#9;&#9;&#9;&#9;C1645.6,910.7,1644.4,909.5,1643,909.5z" style="fill: rgb(255, 255, 255);" transform="matrix(1, 0, 0, 1, -133.36270141601565, -212.74525451660156)"/><path class="st0" d="M1288.1,1098h-12.7c-1.5,0-2.6,1.2-2.6,2.6c0,1.5,1.2,2.6,2.6,2.6h12.7c1.5,0,2.6-1.2,2.6-2.6&#10;&#9;&#9;&#9;&#9;C1290.8,1099.2,1289.6,1098,1288.1,1098z" style="fill: rgb(255, 255, 255);" transform="matrix(1, 0, 0, 1, -133.36270141601565, -212.74525451660156)"/><path class="st0" d="M1338.8,1098h-12.7c-1.5,0-2.6,1.2-2.6,2.6c0,1.5,1.2,2.6,2.6,2.6h12.7c1.5,0,2.6-1.2,2.6-2.6&#10;&#9;&#9;&#9;&#9;C1341.4,1099.2,1340.2,1098,1338.8,1098z" style="fill: rgb(255, 255, 255);" transform="matrix(1, 0, 0, 1, -133.36270141601565, -212.74525451660156)"/><path class="st0" d="M1313.4,1098h-12.7c-1.5,0-2.6,1.2-2.6,2.6c0,1.5,1.2,2.6,2.6,2.6h12.7c1.5,0,2.6-1.2,2.6-2.6&#10;&#9;&#9;&#9;&#9;C1316.1,1099.2,1314.9,1098,1313.4,1098z" style="fill: rgb(255, 255, 255);" transform="matrix(1, 0, 0, 1, -133.36270141601565, -212.74525451660156)"/><path class="st0" d="M1262.8,1098h-12.7c-1.5,0-2.6,1.2-2.6,2.6c0,1.5,1.2,2.6,2.6,2.6h12.7c1.5,0,2.6-1.2,2.6-2.6&#10;&#9;&#9;&#9;&#9;C1265.5,1099.2,1264.3,1098,1262.8,1098z" style="fill: rgb(255, 255, 255);" transform="matrix(1, 0, 0, 1, -133.36270141601565, -212.74525451660156)"/><path class="st0" d="M1389.4,1098h-12.7c-1.5,0-2.6,1.2-2.6,2.6c0,1.5,1.2,2.6,2.6,2.6h12.7c1.5,0,2.6-1.2,2.6-2.6&#10;&#9;&#9;&#9;&#9;C1392,1099.2,1390.8,1098,1389.4,1098z" style="fill: rgb(255, 255, 255);" transform="matrix(1, 0, 0, 1, -133.36270141601565, -212.74525451660156)"/><path class="st0" d="M1364.1,1098h-12.7c-1.5,0-2.6,1.2-2.6,2.6c0,1.5,1.2,2.6,2.6,2.6h12.7c1.5,0,2.6-1.2,2.6-2.6&#10;&#9;&#9;&#9;&#9;C1366.7,1099.2,1365.5,1098,1364.1,1098z" style="fill: rgb(255, 255, 255);" transform="matrix(1, 0, 0, 1, -133.36270141601565, -212.74525451660156)"/><path class="st0" d="M1414.7,1098H1402c-1.5,0-2.6,1.2-2.6,2.6c0,1.5,1.2,2.6,2.6,2.6h12.7c1.5,0,2.6-1.2,2.6-2.6&#10;&#9;&#9;&#9;&#9;C1417.3,1099.2,1416.2,1098,1414.7,1098z" style="fill: rgb(255, 255, 255);" transform="matrix(1, 0, 0, 1, -133.36270141601565, -212.74525451660156)"/><path class="st0" d="M1237.5,1098h-12.7c-1.5,0-2.6,1.2-2.6,2.6c0,1.5,1.2,2.6,2.6,2.6h12.7c1.5,0,2.6-1.2,2.6-2.6&#10;&#9;&#9;&#9;&#9;C1240.1,1099.2,1239,1098,1237.5,1098z" style="fill: rgb(255, 255, 255);" transform="matrix(1, 0, 0, 1, -133.36270141601565, -212.74525451660156)"/><path class="st0" d="M1186.9,1098h-12.7c-1.5,0-2.6,1.2-2.6,2.6c0,1.5,1.2,2.6,2.6,2.6h12.7c1.5,0,2.6-1.2,2.6-2.6&#10;&#9;&#9;&#9;&#9;C1189.5,1099.2,1188.3,1098,1186.9,1098z" style="fill: rgb(255, 255, 255);" transform="matrix(1, 0, 0, 1, -133.36270141601565, -212.74525451660156)"/><path class="st0" d="M1678.3,956.6c-1.5,0-2.6,1.2-2.6,2.6v12.7c0,1.5,1.2,2.6,2.6,2.6c1.5,0,2.6-1.2,2.6-2.6v-12.7&#10;&#9;&#9;&#9;&#9;C1680.9,957.8,1679.8,956.6,1678.3,956.6z" style="fill: rgb(255, 255, 255);" transform="matrix(1, 0, 0, 1, -133.36270141601565, -212.74525451660156)"/><path class="st0" d="M1111.5,1059.5c-1.5,0-2.6,1.2-2.6,2.6v12.7c0,1.5,1.2,2.6,2.6,2.6c1.5,0,2.6-1.2,2.6-2.6v-12.7&#10;&#9;&#9;&#9;&#9;C1114.1,1060.7,1112.9,1059.5,1111.5,1059.5z" style="fill: rgb(255, 255, 255);" transform="matrix(1, 0, 0, 1, -133.36270141601565, -212.74525451660156)"/><path class="st0" d="M1111.5,1034.2c-1.5,0-2.6,1.2-2.6,2.6v12.7c0,1.5,1.2,2.6,2.6,2.6c1.5,0,2.6-1.2,2.6-2.6v-12.7&#10;&#9;&#9;&#9;&#9;C1114.1,1035.4,1112.9,1034.2,1111.5,1034.2z" style="fill: rgb(255, 255, 255);" transform="matrix(1, 0, 0, 1, -133.36270141601565, -212.74525451660156)"/><path class="st0" d="M1111.5,1084.8c-1.5,0-2.6,1.2-2.6,2.6v12.7c0,1.5,1.2,2.6,2.6,2.6c1.5,0,2.6-1.2,2.6-2.6v-12.7&#10;&#9;&#9;&#9;&#9;C1114.1,1086,1112.9,1084.8,1111.5,1084.8z" style="fill: rgb(255, 255, 255);" transform="matrix(1, 0, 0, 1, -133.36270141601565, -212.74525451660156)"/><path class="st0" d="M1161.6,1098h-12.7c-1.5,0-2.6,1.2-2.6,2.6c0,1.5,1.2,2.6,2.6,2.6h12.7c1.5,0,2.6-1.2,2.6-2.6&#10;&#9;&#9;&#9;&#9;C1164.2,1099.2,1163,1098,1161.6,1098z" style="fill: rgb(255, 255, 255);" transform="matrix(1, 0, 0, 1, -133.36270141601565, -212.74525451660156)"/><path class="st0" d="M1440,1098h-12.7c-1.5,0-2.6,1.2-2.6,2.6c0,1.5,1.2,2.6,2.6,2.6h12.7c1.5,0,2.6-1.2,2.6-2.6&#10;&#9;&#9;&#9;&#9;C1442.6,1099.2,1441.5,1098,1440,1098z" style="fill: rgb(255, 255, 255);" transform="matrix(1, 0, 0, 1, -133.36270141601565, -212.74525451660156)"/><path class="st0" d="M1212.2,1098h-12.7c-1.5,0-2.6,1.2-2.6,2.6c0,1.5,1.2,2.6,2.6,2.6h12.7c1.5,0,2.6-1.2,2.6-2.6&#10;&#9;&#9;&#9;&#9;C1214.8,1099.2,1213.6,1098,1212.2,1098z" style="fill: rgb(255, 255, 255);" transform="matrix(1, 0, 0, 1, -133.36270141601565, -212.74525451660156)"/><path class="st0" d="M1136.2,1098h-12.7c-1.5,0-2.6,1.2-2.6,2.6c0,1.5,1.2,2.6,2.6,2.6h12.7c1.5,0,2.6-1.2,2.6-2.6&#10;&#9;&#9;&#9;&#9;C1138.9,1099.2,1137.7,1098,1136.2,1098z" style="fill: rgb(255, 255, 255);" transform="matrix(1, 0, 0, 1, -133.36270141601565, -212.74525451660156)"/><path class="st0" d="M1111.5,1008.9c-1.5,0-2.6,1.2-2.6,2.6v12.7c0,1.5,1.2,2.6,2.6,2.6c1.5,0,2.6-1.2,2.6-2.6v-12.7&#10;&#9;&#9;&#9;&#9;C1114.1,1010,1112.9,1008.9,1111.5,1008.9z" style="fill: rgb(255, 255, 255);" transform="matrix(1, 0, 0, 1, -133.36270141601565, -212.74525451660156)"/><path class="st0" d="M1677.2,950.3c0-1.5-1.2-2.6-2.6-2.6H1662c-1.5,0-2.6,1.2-2.6,2.6s1.2,2.6,2.6,2.6h12.7&#10;&#9;&#9;&#9;&#9;C1676.1,952.9,1677.2,951.7,1677.2,950.3z" style="fill: rgb(255, 255, 255);" transform="matrix(1, 0, 0, 1, -133.36270141601565, -212.74525451660156)"/><path class="st0" d="M1678.3,1083.2c-1.5,0-2.6,1.2-2.6,2.6v12.7c0,1.5,1.2,2.6,2.6,2.6c1.5,0,2.6-1.2,2.6-2.6v-12.7&#10;&#9;&#9;&#9;&#9;C1680.9,1084.3,1679.8,1083.2,1678.3,1083.2z" style="fill: rgb(255, 255, 255);" transform="matrix(1, 0, 0, 1, -133.36270141601565, -212.74525451660156)"/><path class="st0" d="M1667.8,1098h-12.7c-1.5,0-2.6,1.2-2.6,2.6c0,1.5,1.2,2.6,2.6,2.6h12.7c1.5,0,2.6-1.2,2.6-2.6&#10;&#9;&#9;&#9;&#9;C1670.5,1099.2,1669.3,1098,1667.8,1098z" style="fill: rgb(255, 255, 255);" transform="matrix(1, 0, 0, 1, -133.36270141601565, -212.74525451660156)"/><path class="st0" d="M1649.3,947.6h-12.7c-1.5,0-2.6,1.2-2.6,2.6s1.2,2.6,2.6,2.6h12.7c1.5,0,2.6-1.2,2.6-2.6&#10;&#9;&#9;&#9;&#9;S1650.8,947.6,1649.3,947.6z" style="fill: rgb(255, 255, 255);" transform="matrix(1, 0, 0, 1, -133.36270141601565, -212.74525451660156)"/><path class="st0" d="M1678.3,1057.8c-1.5,0-2.6,1.2-2.6,2.6v12.7c0,1.5,1.2,2.6,2.6,2.6c1.5,0,2.6-1.2,2.6-2.6v-12.7&#10;&#9;&#9;&#9;&#9;C1680.9,1059,1679.8,1057.8,1678.3,1057.8z" style="fill: rgb(255, 255, 255);" transform="matrix(1, 0, 0, 1, -133.36270141601565, -212.74525451660156)"/><path class="st0" d="M1465.3,1098h-12.7c-1.5,0-2.6,1.2-2.6,2.6c0,1.5,1.2,2.6,2.6,2.6h12.7c1.5,0,2.6-1.2,2.6-2.6&#10;&#9;&#9;&#9;&#9;C1468,1099.2,1466.8,1098,1465.3,1098z" style="fill: rgb(255, 255, 255);" transform="matrix(1, 0, 0, 1, -133.36270141601565, -212.74525451660156)"/><path class="st0" d="M1678.3,1032.5c-1.5,0-2.6,1.2-2.6,2.6v12.7c0,1.5,1.2,2.6,2.6,2.6c1.5,0,2.6-1.2,2.6-2.6v-12.7&#10;&#9;&#9;&#9;&#9;C1680.9,1033.7,1679.8,1032.5,1678.3,1032.5z" style="fill: rgb(255, 255, 255);" transform="matrix(1, 0, 0, 1, -133.36270141601565, -212.74525451660156)"/><path class="st0" d="M1678.3,1007.2c-1.5,0-2.6,1.2-2.6,2.6v12.7c0,1.5,1.2,2.6,2.6,2.6c1.5,0,2.6-1.2,2.6-2.6v-12.7&#10;&#9;&#9;&#9;&#9;C1680.9,1008.4,1679.8,1007.2,1678.3,1007.2z" style="fill: rgb(255, 255, 255);" transform="matrix(1, 0, 0, 1, -133.36270141601565, -212.74525451660156)"/><path class="st0" d="M1678.3,981.9c-1.5,0-2.6,1.2-2.6,2.6v12.7c0,1.5,1.2,2.6,2.6,2.6c1.5,0,2.6-1.2,2.6-2.6v-12.7&#10;&#9;&#9;&#9;&#9;C1680.9,983.1,1679.8,981.9,1678.3,981.9z" style="fill: rgb(255, 255, 255);" transform="matrix(1, 0, 0, 1, -133.36270141601565, -212.74525451660156)"/><path class="st0" d="M1541.3,1098h-12.7c-1.5,0-2.6,1.2-2.6,2.6c0,1.5,1.2,2.6,2.6,2.6h12.7c1.5,0,2.6-1.2,2.6-2.6&#10;&#9;&#9;&#9;&#9;C1543.9,1099.2,1542.7,1098,1541.3,1098z" style="fill: rgb(255, 255, 255);" transform="matrix(1, 0, 0, 1, -133.36270141601565, -212.74525451660156)"/><path class="st0" d="M1516,1098h-12.7c-1.5,0-2.6,1.2-2.6,2.6c0,1.5,1.2,2.6,2.6,2.6h12.7c1.5,0,2.6-1.2,2.6-2.6&#10;&#9;&#9;&#9;&#9;C1518.6,1099.2,1517.4,1098,1516,1098z" style="fill: rgb(255, 255, 255);" transform="matrix(1, 0, 0, 1, -133.36270141601565, -212.74525451660156)"/><path class="st0" d="M1642.5,1098h-12.7c-1.5,0-2.6,1.2-2.6,2.6c0,1.5,1.2,2.6,2.6,2.6h12.7c1.5,0,2.6-1.2,2.6-2.6&#10;&#9;&#9;&#9;&#9;C1645.2,1099.2,1644,1098,1642.5,1098z" style="fill: rgb(255, 255, 255);" transform="matrix(1, 0, 0, 1, -133.36270141601565, -212.74525451660156)"/><path class="st0" d="M1490.6,1098H1478c-1.5,0-2.6,1.2-2.6,2.6c0,1.5,1.2,2.6,2.6,2.6h12.7c1.5,0,2.6-1.2,2.6-2.6&#10;&#9;&#9;&#9;&#9;C1493.3,1099.2,1492.1,1098,1490.6,1098z" style="fill: rgb(255, 255, 255);" transform="matrix(1, 0, 0, 1, -133.36270141601565, -212.74525451660156)"/><path class="st0" d="M1617.2,1098h-12.7c-1.5,0-2.6,1.2-2.6,2.6c0,1.5,1.2,2.6,2.6,2.6h12.7c1.5,0,2.6-1.2,2.6-2.6&#10;&#9;&#9;&#9;&#9;C1619.8,1099.2,1618.7,1098,1617.2,1098z" style="fill: rgb(255, 255, 255);" transform="matrix(1, 0, 0, 1, -133.36270141601565, -212.74525451660156)"/><path class="st0" d="M1591.9,1098h-12.7c-1.5,0-2.6,1.2-2.6,2.6c0,1.5,1.2,2.6,2.6,2.6h12.7c1.5,0,2.6-1.2,2.6-2.6&#10;&#9;&#9;&#9;&#9;C1594.5,1099.2,1593.3,1098,1591.9,1098z" style="fill: rgb(255, 255, 255);" transform="matrix(1, 0, 0, 1, -133.36270141601565, -212.74525451660156)"/><path class="st0" d="M1566.6,1098h-12.7c-1.5,0-2.6,1.2-2.6,2.6c0,1.5,1.2,2.6,2.6,2.6h12.7c1.5,0,2.6-1.2,2.6-2.6&#10;&#9;&#9;&#9;&#9;C1569.2,1099.2,1568,1098,1566.6,1098z" style="fill: rgb(255, 255, 255);" transform="matrix(1, 0, 0, 1, -133.36270141601565, -212.74525451660156)"/><path d="M 1221.800026 577.900024 A 50.900002 50.900002 0 0 1 1170.900024 628.800026 A 50.900002 50.900002 0 0 1 1120.000023 577.900024 A 50.900002 50.900002 0 0 1 1170.900024 527.000023 A 50.900002 50.900002 0 0 1 1221.800026 577.900024 Z" class="st10" style="fill: rgb(247, 127, 164);" transform="matrix(1, 0, 0, 1, -133.36270141601565, -212.74525451660156)"/><path class="st0" d="M1192.6,557l-30.7,33.4l-12.7-15c-1.3-1.6-3.7-1.8-5.3-0.5c-1.6,1.3-1.8,3.7-0.5,5.3l15.4,18.3&#10;&#9;&#9;&#9;&#9;&#9;c0.7,0.8,1.7,1.3,2.8,1.3c0,0,0.1,0,0.1,0c1.1,0,2.1-0.4,2.8-1.2l33.6-36.6c1.4-1.5,1.3-3.9-0.2-5.3&#10;&#9;&#9;&#9;&#9;&#9;C1196.4,555.4,1194,555.5,1192.6,557z" style="fill: rgb(255, 255, 255);" transform="matrix(1, 0, 0, 1, -133.36270141601565, -212.74525451660156)"/><path class="st11" d="M417.9,289.9l-16.5-3.1c-1.5-5.9-3.9-11.4-6.8-16.5l9.5-13.9c1.8-2.7,1.5-6.3-0.8-8.5l-4.9-4.9l-4.9-4.9&#10;&#9;&#9;&#9;&#9;c-2.3-2.3-5.9-2.6-8.5-0.8l-13.9,9.5c-5.1-3-10.6-5.3-16.5-6.8l-3.1-16.5c-0.6-3.2-3.4-5.5-6.6-5.5h-6.9h-6.9&#10;&#9;&#9;&#9;&#9;c-3.2,0-6,2.3-6.6,5.5l-3.1,16.5c-5.9,1.5-11.4,3.9-16.5,6.8l-13.9-9.5c-2.7-1.8-6.3-1.5-8.5,0.8l-4.9,4.9l-4.9,4.9&#10;&#9;&#9;&#9;&#9;c-2.3,2.3-2.6,5.9-0.8,8.5l9.5,13.9c-3,5.1-5.3,10.6-6.8,16.5l-16.5,3.1c-3.2,0.6-5.5,3.4-5.5,6.6v6.9v6.9c0,3.2,2.3,6,5.5,6.6&#10;&#9;&#9;&#9;&#9;l16.5,3.1c1.5,5.9,3.9,11.4,6.8,16.5l-9.5,13.9c-1.8,2.7-1.5,6.3,0.8,8.5l4.9,4.9l4.9,4.9c2.3,2.3,5.9,2.6,8.5,0.8l13.9-9.5&#10;&#9;&#9;&#9;&#9;c5.1,3,10.6,5.3,16.5,6.8l3.1,16.5c0.6,3.2,3.4,5.5,6.6,5.5h6.9h6.9c3.2,0,6-2.3,6.6-5.5l3.1-16.5c5.9-1.5,11.4-3.9,16.5-6.8&#10;&#9;&#9;&#9;&#9;l13.9,9.5c2.7,1.8,6.3,1.5,8.5-0.8l4.9-4.9l4.9-4.9c2.3-2.3,2.6-5.9,0.8-8.5l-9.5-13.9c3-5.1,5.3-10.6,6.8-16.5l16.5-3.1&#10;&#9;&#9;&#9;&#9;c3.2-0.6,5.5-3.4,5.5-6.6v-6.9v-6.9C423.4,293.3,421.1,290.5,417.9,289.9z M337.8,345.7c-23.4,0-42.3-18.9-42.3-42.3&#10;&#9;&#9;&#9;&#9;c0-23.4,18.9-42.3,42.3-42.3c23.4,0,42.3,18.9,42.3,42.3C380.1,326.8,361.2,345.7,337.8,345.7z" style="fill: rgb(160, 189, 229);" transform="matrix(1, 0, 0, 1, -133.36270141601565, -212.74525451660156)"/><path class="st12" d="M1839.7,971.6l-12.6-2.4c-1.2-4.4-2.9-8.7-5.2-12.5l7.2-10.6c1.4-2,1.1-4.8-0.6-6.5l-3.7-3.7l-3.7-3.7&#10;&#9;&#9;&#9;&#9;c-1.7-1.7-4.5-2-6.5-0.6l-10.6,7.2c-3.9-2.3-8.1-4-12.5-5.2l-2.4-12.6c-0.5-2.4-2.6-4.2-5-4.2h-5.3h-5.3c-2.5,0-4.6,1.7-5,4.2&#10;&#9;&#9;&#9;&#9;l-2.4,12.6c-4.4,1.2-8.7,2.9-12.5,5.2l-10.6-7.2c-2-1.4-4.8-1.1-6.5,0.6l-3.7,3.7l-3.7,3.7c-1.7,1.7-2,4.5-0.6,6.5l7.2,10.6&#10;&#9;&#9;&#9;&#9;c-2.3,3.9-4,8.1-5.2,12.5l-12.6,2.4c-2.4,0.5-4.2,2.6-4.2,5v5.3v5.3c0,2.5,1.7,4.6,4.2,5l12.6,2.4c1.2,4.4,2.9,8.7,5.2,12.5&#10;&#9;&#9;&#9;&#9;l-7.2,10.6c-1.4,2-1.1,4.8,0.6,6.5l3.7,3.7l3.7,3.7c1.7,1.7,4.5,2,6.5,0.6l10.6-7.2c3.9,2.3,8.1,4,12.5,5.2l2.4,12.6&#10;&#9;&#9;&#9;&#9;c0.5,2.4,2.6,4.2,5,4.2h5.3h5.3c2.5,0,4.6-1.7,5-4.2l2.4-12.6c4.4-1.2,8.7-2.9,12.5-5.2l10.6,7.2c2,1.4,4.8,1.1,6.5-0.6l3.7-3.7&#10;&#9;&#9;&#9;&#9;l3.7-3.7c1.7-1.7,2-4.5,0.6-6.5l-7.2-10.6c2.3-3.9,4-8.1,5.2-12.5l12.6-2.4c2.4-0.5,4.2-2.6,4.2-5v-5.3v-5.3&#10;&#9;&#9;&#9;&#9;C1843.9,974.2,1842.1,972.1,1839.7,971.6z M1778.9,1014c-17.8,0-32.1-14.4-32.1-32.1c0-17.8,14.4-32.1,32.1-32.1&#10;&#9;&#9;&#9;&#9;s32.1,14.4,32.1,32.1C1811,999.6,1796.6,1014,1778.9,1014z" style="fill: rgb(248, 249, 251);" transform="matrix(1, 0, 0, 1, -133.36270141601565, -212.74525451660156)"/><path class="st12" d="M1080.4,505.2l-8.8-1.7c-0.8-3.1-2.1-6.1-3.6-8.8l5.1-7.4c1-1.4,0.8-3.3-0.4-4.5l-2.6-2.6l-2.6-2.6&#10;&#9;&#9;&#9;&#9;c-1.2-1.2-3.1-1.4-4.5-0.4l-7.4,5.1c-2.7-1.6-5.6-2.8-8.8-3.6l-1.7-8.8c-0.3-1.7-1.8-2.9-3.5-2.9h-3.7h-3.7&#10;&#9;&#9;&#9;&#9;c-1.7,0-3.2,1.2-3.5,2.9l-1.7,8.8c-3.1,0.8-6.1,2.1-8.8,3.6l-7.4-5.1c-1.4-1-3.3-0.8-4.5,0.4l-2.6,2.6l-2.6,2.6&#10;&#9;&#9;&#9;&#9;c-1.2,1.2-1.4,3.1-0.4,4.5l5.1,7.4c-1.6,2.7-2.8,5.6-3.6,8.8l-8.8,1.7c-1.7,0.3-2.9,1.8-2.9,3.5v3.7v3.7c0,1.7,1.2,3.2,2.9,3.5&#10;&#9;&#9;&#9;&#9;l8.8,1.7c0.8,3.1,2.1,6.1,3.6,8.8l-5.1,7.4c-1,1.4-0.8,3.3,0.4,4.5l2.6,2.6l2.6,2.6c1.2,1.2,3.1,1.4,4.5,0.4l7.4-5.1&#10;&#9;&#9;&#9;&#9;c2.7,1.6,5.6,2.8,8.8,3.6l1.7,8.8c0.3,1.7,1.8,2.9,3.5,2.9h3.7h3.7c1.7,0,3.2-1.2,3.5-2.9l1.7-8.8c3.1-0.8,6.1-2.1,8.8-3.6&#10;&#9;&#9;&#9;&#9;l7.4,5.1c1.4,1,3.3,0.8,4.5-0.4l2.6-2.6l2.6-2.6c1.2-1.2,1.4-3.1,0.4-4.5l-5.1-7.4c1.6-2.7,2.8-5.6,3.6-8.8l8.8-1.7&#10;&#9;&#9;&#9;&#9;c1.7-0.3,2.9-1.8,2.9-3.5v-3.7v-3.7C1083.3,507,1082.1,505.5,1080.4,505.2z M1037.8,534.9c-12.4,0-22.5-10.1-22.5-22.5&#10;&#9;&#9;&#9;&#9;s10.1-22.5,22.5-22.5c12.4,0,22.5,10.1,22.5,22.5S1050.3,534.9,1037.8,534.9z" style="fill: rgb(248, 249, 251);" transform="matrix(1, 0, 0, 1, -133.36270141601565, -212.74525451660156)"/><path class="st0" d="M928.5,629.9c-1.5,0-2.6,1.2-2.6,2.6v12.7c0,1.5,1.2,2.6,2.6,2.6c1.5,0,2.6-1.2,2.6-2.6v-12.7&#10;&#9;&#9;&#9;&#9;C931.1,631.1,930,629.9,928.5,629.9z" style="fill: rgb(255, 255, 255);" transform="matrix(1, 0, 0, 1, -133.36270141601565, -212.74525451660156)"/><path class="st0" d="M928.5,705.9c-1.5,0-2.6,1.2-2.6,2.6v12.7c0,1.5,1.2,2.6,2.6,2.6c1.5,0,2.6-1.2,2.6-2.6v-12.7&#10;&#9;&#9;&#9;&#9;C931.1,707,930,705.9,928.5,705.9z" style="fill: rgb(255, 255, 255);" transform="matrix(1, 0, 0, 1, -133.36270141601565, -212.74525451660156)"/><path class="st0" d="M928.5,680.5c-1.5,0-2.6,1.2-2.6,2.6v12.7c0,1.5,1.2,2.6,2.6,2.6c1.5,0,2.6-1.2,2.6-2.6v-12.7&#10;&#9;&#9;&#9;&#9;C931.1,681.7,930,680.5,928.5,680.5z" style="fill: rgb(255, 255, 255);" transform="matrix(1, 0, 0, 1, -133.36270141601565, -212.74525451660156)"/><path class="st0" d="M928.5,655.2c-1.5,0-2.6,1.2-2.6,2.6v12.7c0,1.5,1.2,2.6,2.6,2.6c1.5,0,2.6-1.2,2.6-2.6v-12.7&#10;&#9;&#9;&#9;&#9;C931.1,656.4,930,655.2,928.5,655.2z" style="fill: rgb(255, 255, 255);" transform="matrix(1, 0, 0, 1, -133.36270141601565, -212.74525451660156)"/><path class="st0" d="M928.5,731.2c-1.5,0-2.6,1.2-2.6,2.6v12.7c0,1.5,1.2,2.6,2.6,2.6c1.5,0,2.6-1.2,2.6-2.6v-12.7&#10;&#9;&#9;&#9;&#9;C931.1,732.4,930,731.2,928.5,731.2z" style="fill: rgb(255, 255, 255);" transform="matrix(1, 0, 0, 1, -133.36270141601565, -212.74525451660156)"/><path class="st0" d="M887.6,531.6h-12.7c-1.5,0-2.6,1.2-2.6,2.6c0,1.5,1.2,2.6,2.6,2.6h12.7c1.5,0,2.6-1.2,2.6-2.6&#10;&#9;&#9;&#9;&#9;C890.2,532.8,889,531.6,887.6,531.6z" style="fill: rgb(255, 255, 255);" transform="matrix(1, 0, 0, 1, -133.36270141601565, -212.74525451660156)"/><path class="st0" d="M912.9,531.6h-12.7c-1.5,0-2.6,1.2-2.6,2.6c0,1.5,1.2,2.6,2.6,2.6h12.7c1.5,0,2.6-1.2,2.6-2.6&#10;&#9;&#9;&#9;&#9;C915.5,532.8,914.3,531.6,912.9,531.6z" style="fill: rgb(255, 255, 255);" transform="matrix(1, 0, 0, 1, -133.36270141601565, -212.74525451660156)"/><path class="st0" d="M928.5,781.8c-1.5,0-2.6,1.2-2.6,2.6v12.7c0,1.5,1.2,2.6,2.6,2.6c1.5,0,2.6-1.2,2.6-2.6v-12.7&#10;&#9;&#9;&#9;&#9;C931.1,783,930,781.8,928.5,781.8z" style="fill: rgb(255, 255, 255);" transform="matrix(1, 0, 0, 1, -133.36270141601565, -212.74525451660156)"/><path class="st0" d="M928.5,756.5c-1.5,0-2.6,1.2-2.6,2.6v12.7c0,1.5,1.2,2.6,2.6,2.6c1.5,0,2.6-1.2,2.6-2.6v-12.7&#10;&#9;&#9;&#9;&#9;C931.1,757.7,930,756.5,928.5,756.5z" style="fill: rgb(255, 255, 255);" transform="matrix(1, 0, 0, 1, -133.36270141601565, -212.74525451660156)"/><path class="st0" d="M928.5,807.1c-1.5,0-2.6,1.2-2.6,2.6v12.7c0,1.5,1.2,2.6,2.6,2.6c1.5,0,2.6-1.2,2.6-2.6v-12.7&#10;&#9;&#9;&#9;&#9;C931.1,808.3,930,807.1,928.5,807.1z" style="fill: rgb(255, 255, 255);" transform="matrix(1, 0, 0, 1, -133.36270141601565, -212.74525451660156)"/><path class="st0" d="M999,825.2h-12.7c-1.5,0-2.6,1.2-2.6,2.6s1.2,2.6,2.6,2.6H999c1.5,0,2.6-1.2,2.6-2.6S1000.5,825.2,999,825.2&#10;&#9;&#9;&#9;&#9;z" style="fill: rgb(255, 255, 255);" transform="matrix(1, 0, 0, 1, -133.36270141601565, -212.74525451660156)"/><path class="st0" d="M1024.3,825.2h-12.7c-1.5,0-2.6,1.2-2.6,2.6s1.2,2.6,2.6,2.6h12.7c1.5,0,2.6-1.2,2.6-2.6&#10;&#9;&#9;&#9;&#9;S1025.8,825.2,1024.3,825.2z" style="fill: rgb(255, 255, 255);" transform="matrix(1, 0, 0, 1, -133.36270141601565, -212.74525451660156)"/><path class="st0" d="M973.7,825.2h-12.7c-1.5,0-2.6,1.2-2.6,2.6s1.2,2.6,2.6,2.6h12.7c1.5,0,2.6-1.2,2.6-2.6&#10;&#9;&#9;&#9;&#9;S975.2,825.2,973.7,825.2z" style="fill: rgb(255, 255, 255);" transform="matrix(1, 0, 0, 1, -133.36270141601565, -212.74525451660156)"/><path class="st0" d="M1038.7,825.2h-1.7c-1.5,0-2.6,1.2-2.6,2.6s1.2,2.6,2.6,2.6h1.7c1.5,0,2.6-1.2,2.6-2.6&#10;&#9;&#9;&#9;&#9;S1040.2,825.2,1038.7,825.2z" style="fill: rgb(255, 255, 255);" transform="matrix(1, 0, 0, 1, -133.36270141601565, -212.74525451660156)"/><path class="st0" d="M928.5,579.3c-1.5,0-2.6,1.2-2.6,2.6v12.7c0,1.5,1.2,2.6,2.6,2.6c1.5,0,2.6-1.2,2.6-2.6v-12.7&#10;&#9;&#9;&#9;&#9;C931.1,580.5,930,579.3,928.5,579.3z" style="fill: rgb(255, 255, 255);" transform="matrix(1, 0, 0, 1, -133.36270141601565, -212.74525451660156)"/><path class="st0" d="M928.5,554c-1.5,0-2.6,1.2-2.6,2.6v12.7c0,1.5,1.2,2.6,2.6,2.6c1.5,0,2.6-1.2,2.6-2.6v-12.7&#10;&#9;&#9;&#9;&#9;C931.1,555.2,930,554,928.5,554z" style="fill: rgb(255, 255, 255);" transform="matrix(1, 0, 0, 1, -133.36270141601565, -212.74525451660156)"/><path class="st0" d="M928.5,604.6c-1.5,0-2.6,1.2-2.6,2.6v12.7c0,1.5,1.2,2.6,2.6,2.6c1.5,0,2.6-1.2,2.6-2.6v-12.7&#10;&#9;&#9;&#9;&#9;C931.1,605.8,930,604.6,928.5,604.6z" style="fill: rgb(255, 255, 255);" transform="matrix(1, 0, 0, 1, -133.36270141601565, -212.74525451660156)"/><path class="st0" d="M948.4,825.2h-12.7c-1.5,0-2.6,1.2-2.6,2.6s1.2,2.6,2.6,2.6h12.7c1.5,0,2.6-1.2,2.6-2.6&#10;&#9;&#9;&#9;&#9;S949.9,825.2,948.4,825.2z" style="fill: rgb(255, 255, 255);" transform="matrix(1, 0, 0, 1, -133.36270141601565, -212.74525451660156)"/><path class="st0" d="M922.9,534.3c0,1.5,1.2,2.6,2.6,2.6h0.3v7c0,1.5,1.2,2.6,2.6,2.6c1.5,0,2.6-1.2,2.6-2.6v-12.3h-5.6&#10;&#9;&#9;&#9;&#9;C924.1,531.6,922.9,532.8,922.9,534.3z" style="fill: rgb(255, 255, 255);" transform="matrix(1, 0, 0, 1, -133.36270141601565, -212.74525451660156)"/><path class="st0" d="M431.5,947.6h-12.7c-1.5,0-2.6,1.2-2.6,2.6s1.2,2.6,2.6,2.6h12.7c1.5,0,2.6-1.2,2.6-2.6&#10;&#9;&#9;&#9;&#9;S433,947.6,431.5,947.6z" style="fill: rgb(255, 255, 255);" transform="matrix(1, 0, 0, 1, -133.36270141601565, -212.74525451660156)"/><path class="st0" d="M507.5,947.6h-12.7c-1.5,0-2.6,1.2-2.6,2.6s1.2,2.6,2.6,2.6h12.7c1.5,0,2.6-1.2,2.6-2.6&#10;&#9;&#9;&#9;&#9;S508.9,947.6,507.5,947.6z" style="fill: rgb(255, 255, 255);" transform="matrix(1, 0, 0, 1, -133.36270141601565, -212.74525451660156)"/><path class="st0" d="M406.2,947.6h-12.7c-1.5,0-2.6,1.2-2.6,2.6s1.2,2.6,2.6,2.6h12.7c1.5,0,2.6-1.2,2.6-2.6&#10;&#9;&#9;&#9;&#9;S407.7,947.6,406.2,947.6z" style="fill: rgb(255, 255, 255);" transform="matrix(1, 0, 0, 1, -133.36270141601565, -212.74525451660156)"/><path class="st0" d="M456.8,947.6h-12.7c-1.5,0-2.6,1.2-2.6,2.6s1.2,2.6,2.6,2.6h12.7c1.5,0,2.6-1.2,2.6-2.6&#10;&#9;&#9;&#9;&#9;S458.3,947.6,456.8,947.6z" style="fill: rgb(255, 255, 255);" transform="matrix(1, 0, 0, 1, -133.36270141601565, -212.74525451660156)"/><path class="st0" d="M482.1,947.6h-12.7c-1.5,0-2.6,1.2-2.6,2.6s1.2,2.6,2.6,2.6h12.7c1.5,0,2.6-1.2,2.6-2.6&#10;&#9;&#9;&#9;&#9;S483.6,947.6,482.1,947.6z" style="fill: rgb(255, 255, 255);" transform="matrix(1, 0, 0, 1, -133.36270141601565, -212.74525451660156)"/><path class="st0" d="M337.8,894.7c1.5,0,2.6-1.2,2.6-2.6v-12.7c0-1.5-1.2-2.6-2.6-2.6c-1.5,0-2.6,1.2-2.6,2.6V892&#10;&#9;&#9;&#9;&#9;C335.2,893.5,336.4,894.7,337.8,894.7z" style="fill: rgb(255, 255, 255);" transform="matrix(1, 0, 0, 1, -133.36270141601565, -212.74525451660156)"/><path class="st0" d="M337.8,920c1.5,0,2.6-1.2,2.6-2.6v-12.7c0-1.5-1.2-2.6-2.6-2.6c-1.5,0-2.6,1.2-2.6,2.6v12.7&#10;&#9;&#9;&#9;&#9;C335.2,918.8,336.4,920,337.8,920z" style="fill: rgb(255, 255, 255);" transform="matrix(1, 0, 0, 1, -133.36270141601565, -212.74525451660156)"/><path class="st0" d="M340.5,930c0-1.5-1.2-2.6-2.6-2.6c-1.5,0-2.6,1.2-2.6,2.6v12.7c0,1.5,1.2,2.6,2.6,2.6c1.5,0,2.6-1.2,2.6-2.6&#10;&#9;&#9;&#9;&#9;V930z" style="fill: rgb(255, 255, 255);" transform="matrix(1, 0, 0, 1, -133.36270141601565, -212.74525451660156)"/><path class="st0" d="M355.6,947.6h-12.7c-1.5,0-2.6,1.2-2.6,2.6s1.2,2.6,2.6,2.6h12.7c1.5,0,2.6-1.2,2.6-2.6&#10;&#9;&#9;&#9;&#9;S357,947.6,355.6,947.6z" style="fill: rgb(255, 255, 255);" transform="matrix(1, 0, 0, 1, -133.36270141601565, -212.74525451660156)"/><path class="st0" d="M380.9,947.6h-12.7c-1.5,0-2.6,1.2-2.6,2.6s1.2,2.6,2.6,2.6h12.7c1.5,0,2.6-1.2,2.6-2.6&#10;&#9;&#9;&#9;&#9;S382.3,947.6,380.9,947.6z" style="fill: rgb(255, 255, 255);" transform="matrix(1, 0, 0, 1, -133.36270141601565, -212.74525451660156)"/><path class="st0" d="M531.6,845.2c-1.5,0-2.6,1.2-2.6,2.6v12.7c0,1.5,1.2,2.6,2.6,2.6s2.6-1.2,2.6-2.6v-12.7&#10;&#9;&#9;&#9;&#9;C534.3,846.4,533.1,845.2,531.6,845.2z" style="fill: rgb(255, 255, 255);" transform="matrix(1, 0, 0, 1, -133.36270141601565, -212.74525451660156)"/><path class="st0" d="M531.6,744c-1.5,0-2.6,1.2-2.6,2.6v12.7c0,1.5,1.2,2.6,2.6,2.6s2.6-1.2,2.6-2.6v-12.7&#10;&#9;&#9;&#9;&#9;C534.3,745.2,533.1,744,531.6,744z" style="fill: rgb(255, 255, 255);" transform="matrix(1, 0, 0, 1, -133.36270141601565, -212.74525451660156)"/><path class="st0" d="M531.6,769.3c-1.5,0-2.6,1.2-2.6,2.6v12.7c0,1.5,1.2,2.6,2.6,2.6s2.6-1.2,2.6-2.6v-12.7&#10;&#9;&#9;&#9;&#9;C534.3,770.5,533.1,769.3,531.6,769.3z" style="fill: rgb(255, 255, 255);" transform="matrix(1, 0, 0, 1, -133.36270141601565, -212.74525451660156)"/><path class="st0" d="M531.6,794.6c-1.5,0-2.6,1.2-2.6,2.6v12.7c0,1.5,1.2,2.6,2.6,2.6s2.6-1.2,2.6-2.6v-12.7&#10;&#9;&#9;&#9;&#9;C534.3,795.8,533.1,794.6,531.6,794.6z" style="fill: rgb(255, 255, 255);" transform="matrix(1, 0, 0, 1, -133.36270141601565, -212.74525451660156)"/><path class="st0" d="M531.6,718.7c-1.5,0-2.6,1.2-2.6,2.6V734c0,1.5,1.2,2.6,2.6,2.6s2.6-1.2,2.6-2.6v-12.7&#10;&#9;&#9;&#9;&#9;C534.3,719.8,533.1,718.7,531.6,718.7z" style="fill: rgb(255, 255, 255);" transform="matrix(1, 0, 0, 1, -133.36270141601565, -212.74525451660156)"/><path class="st0" d="M531.6,946.5c-0.9,0-1.7,0.4-2.2,1.1h-9.4c-1.5,0-2.6,1.2-2.6,2.6s1.2,2.6,2.6,2.6h14.2v-3.8&#10;&#9;&#9;&#9;&#9;C534.3,947.7,533.1,946.5,531.6,946.5z" style="fill: rgb(255, 255, 255);" transform="matrix(1, 0, 0, 1, -133.36270141601565, -212.74525451660156)"/><path class="st0" d="M531.6,921.2c-1.5,0-2.6,1.2-2.6,2.6v12.7c0,1.5,1.2,2.6,2.6,2.6s2.6-1.2,2.6-2.6v-12.7&#10;&#9;&#9;&#9;&#9;C534.3,922.4,533.1,921.2,531.6,921.2z" style="fill: rgb(255, 255, 255);" transform="matrix(1, 0, 0, 1, -133.36270141601565, -212.74525451660156)"/><path class="st0" d="M531.6,819.9c-1.5,0-2.6,1.2-2.6,2.6v12.7c0,1.5,1.2,2.6,2.6,2.6s2.6-1.2,2.6-2.6v-12.7&#10;&#9;&#9;&#9;&#9;C534.3,821.1,533.1,819.9,531.6,819.9z" style="fill: rgb(255, 255, 255);" transform="matrix(1, 0, 0, 1, -133.36270141601565, -212.74525451660156)"/><path class="st0" d="M531.6,895.9c-1.5,0-2.6,1.2-2.6,2.6v12.7c0,1.5,1.2,2.6,2.6,2.6s2.6-1.2,2.6-2.6v-12.7&#10;&#9;&#9;&#9;&#9;C534.3,897,533.1,895.9,531.6,895.9z" style="fill: rgb(255, 255, 255);" transform="matrix(1, 0, 0, 1, -133.36270141601565, -212.74525451660156)"/><path class="st0" d="M531.6,870.5c-1.5,0-2.6,1.2-2.6,2.6v12.7c0,1.5,1.2,2.6,2.6,2.6s2.6-1.2,2.6-2.6v-12.7&#10;&#9;&#9;&#9;&#9;C534.3,871.7,533.1,870.5,531.6,870.5z" style="fill: rgb(255, 255, 255);" transform="matrix(1, 0, 0, 1, -133.36270141601565, -212.74525451660156)"/><path class="st13" d="M191.1,1500.2c-18,18.2-28.1,42.2-27.9,67.3c0.3,31.2,14.7,58.2,36.3,79.6c-8.8-48.5,4.7-101.8,33.8-141.2&#10;&#9;&#9;&#9;&#9;c12.6-17,27.5-31.9,44-44.7c-10.2,2.5-20.5,5.2-30.5,8.4C226.5,1476.1,206.1,1485.1,191.1,1500.2z" style="fill: rgb(207, 240, 239);" transform="matrix(1, 0, 0, 1, -133.36270141601565, -212.74525451660156)"/><path class="st13" d="M723.4,1436.6c43.3,11.6,87.5,19.9,132,25.9c7.2,0.9,14.3,1.7,21.5,2.5c-43.2-8.7-85.6-20.3-126.8-35.5&#10;&#9;&#9;&#9;&#9;c-5.1-21.7-24.3-39-49.1-39c-0.1,0-0.3,0-0.4,0c-37.3,0.3-74.6,2.8-111.7,7c29.3,1.5,58.7,3.1,88,3.2&#10;&#9;&#9;&#9;&#9;C700.3,1400.7,718.3,1416.3,723.4,1436.6z" style="fill: rgb(207, 240, 239);" transform="matrix(1, 0, 0, 1, -133.36270141601565, -212.74525451660156)"/><path class="st13" d="M734.4,1703c-9.5-1-19.1-1.5-28.6-1.5c-8.3,0-16.7,0.4-25,1.2c-15,2.3-29.6,5.8-43.9,10&#10;&#9;&#9;&#9;&#9;c17.8,3,35.2,7.3,52.1,13.5c37.6,16.5,70.8,42.2,111.9,50.9c13.1,2.8,26.1,4.1,39.1,4.1c14.6,0,29.3-1.6,43.9-4.6&#10;&#9;&#9;&#9;&#9;c17.1-3.5,33.7-9.4,49.9-15.9c-11.3-2.8-22.4-6-33.4-9.4C845.5,1734,791.8,1711.6,734.4,1703z" style="fill: rgb(207, 240, 239);" transform="matrix(1, 0, 0, 1, -133.36270141601565, -212.74525451660156)"/><path class="st13" d="M1572.7,1475.4c-15.7-0.4-31.3-0.5-47-0.5c-29,0-58,0.6-87,1.4c16,0.9,32,1.9,48,3.2&#10;&#9;&#9;&#9;&#9;c49.2,4.1,97,10.7,142.2,30.4c41.7,18.2,73.3,49.7,90.8,89.4c15.6-25.9,12.1-59.4-7-82.9&#10;&#9;&#9;&#9;&#9;C1679.8,1476,1621.5,1476.6,1572.7,1475.4z" style="fill: rgb(207, 240, 239);" transform="matrix(1, 0, 0, 1, -133.36270141601565, -212.74525451660156)"/><path class="st13" d="M573.9,1708.9c-48.3,0-96.7,4.8-145,5.3c-2.9,0-5.7,0.1-8.6,0.1c-64.6,0-133-8.6-188.3-42.2&#10;&#9;&#9;&#9;&#9;c-11.8-7.2-22.8-15.6-32.4-25.1c3.7,20.5,11.4,40.1,23.6,57.5c23.1,33.1,57.1,55.4,96.6,67.8c22.1,6.9,45,9.8,67.9,9.8&#10;&#9;&#9;&#9;&#9;c17.4,0,34.9-1.6,52.2-4.3c69.2-10.9,130.7-45.8,197.1-65.2c-1.9-0.3-3.9-0.6-5.8-0.9C612,1709.7,592.9,1708.9,573.9,1708.9z" style="fill: rgb(207, 240, 239);" transform="matrix(1, 0, 0, 1, -133.36270141601565, -212.74525451660156)"/><path class="st13" d="M353.3,1442.1c36.2-8.9,72.6-17.3,109.3-24.6c41.7-8.3,83.9-15.3,126.3-20.1c-12.9-0.7-25.8-1.3-38.8-1.8&#10;&#9;&#9;&#9;&#9;c-10.5-0.4-21-0.6-31.4-0.6c-31.3,0-62.4,1.8-93.5,6.4c-53.6,7.9-106.1,27.3-147.8,59.6c6.8-1.7,13.6-3.3,20.3-5.1&#10;&#9;&#9;&#9;&#9;C316.2,1451.3,334.7,1446.6,353.3,1442.1z" style="fill: rgb(207, 240, 239);" transform="matrix(1, 0, 0, 1, -133.36270141601565, -212.74525451660156)"/><path class="st13" d="M973.1,1479.4c52.6,5.1,105.5,7,158.3,7c43.8,0,87.7-1.3,131.5-3c58.6-2.3,117.2-5.3,175.8-7.1&#10;&#9;&#9;&#9;&#9;c-46.1-2.5-92.3-3.2-138.5-3.2c-40,0-79.9,0.5-119.9,1c-27.2,0.3-54.5,0.6-81.7,0.6c-71,0-141.9-1.7-212.6-8.7&#10;&#9;&#9;&#9;&#9;c-3-0.3-6.1-0.6-9.1-0.9c22.3,4.5,44.8,8.2,67.3,11.2C953.9,1477.4,963.5,1478.4,973.1,1479.4z" style="fill: rgb(207, 240, 239);" transform="matrix(1, 0, 0, 1, -133.36270141601565, -212.74525451660156)"/><path class="st13" d="M1719.8,1599.3c-1.4,2.3-2.9,4.5-4.5,6.6c-16.7,21.6-39.7,36.4-64.5,48.7c-79.5,39.6-170.1,49.9-258.9,49.9&#10;&#9;&#9;&#9;&#9;c-4.6,0-9.1,0-13.7-0.1c-61.3-0.7-122.6-5.6-183.9-5.6c-29.8,0-59.7,1.2-89.4,4.5c-32.4,4.6-64.2,12.1-94.6,23.6&#10;&#9;&#9;&#9;&#9;c-19.7,8.2-38.8,17.6-58.5,25.9c-6,2.5-12,5.1-18,7.5c30.2,7.6,61.3,12.6,92.3,12.6c21.7,0,43.3-2.4,64.6-8.1&#10;&#9;&#9;&#9;&#9;c37.6-10,71.1-29.5,106.6-44.5c14-5.2,28.2-9.2,43-11.6c8.1-0.8,16.2-1.1,24.3-1.1c10.6,0,21.2,0.6,31.8,1.7&#10;&#9;&#9;&#9;&#9;c93.9,14,178.4,63.6,274.1,69.4c4.3,0.3,8.7,0.4,13.2,0.4c42.4,0,88-12.4,116.1-43.7c31.9-35.6,40.2-84.8,23.3-128.7&#10;&#9;&#9;&#9;&#9;C1721.9,1604.3,1720.9,1601.8,1719.8,1599.3z" style="fill: rgb(207, 240, 239);" transform="matrix(1, 0, 0, 1, -133.36270141601565, -212.74525451660156)"/><path class="st14" d="M1629,1510c-45.2-19.7-93-26.3-142.2-30.4c-16-1.3-32-2.4-48-3.2c-58.6,1.8-117.2,4.8-175.8,7.1&#10;&#9;&#9;&#9;&#9;c-43.8,1.7-87.7,3-131.5,3c-52.9,0-105.7-1.8-158.3-7c-9.6-0.9-19.2-2-28.8-3.2c-22.6-3-45.1-6.7-67.3-11.2&#10;&#9;&#9;&#9;&#9;c-7.2-0.8-14.3-1.6-21.5-2.5c-44.6-6-88.8-14.3-132-25.9c-5.1-20.3-23.1-36-46.5-36c-29.4-0.1-58.7-1.7-88-3.2&#10;&#9;&#9;&#9;&#9;c-42.4,4.8-84.6,11.8-126.3,20.1c-36.6,7.3-73,15.7-109.3,24.6c-18.6,4.6-37.1,9.3-55.7,14c-6.7,1.7-13.5,3.4-20.3,5.1&#10;&#9;&#9;&#9;&#9;c-16.6,12.8-31.5,27.7-44,44.7c-29.1,39.3-42.6,92.6-33.8,141.2c9.6,9.5,20.6,17.9,32.4,25.1c55.3,33.6,123.7,42.2,188.3,42.2&#10;&#9;&#9;&#9;&#9;c2.9,0,5.8,0,8.6-0.1c48.3-0.6,96.7-5.3,145-5.3c19.1,0,38.2,0.7,57.2,2.8c1.9,0.3,3.9,0.6,5.8,0.9c14.4-4.2,29-7.6,43.9-10&#10;&#9;&#9;&#9;&#9;c8.3-0.8,16.7-1.2,25-1.2c9.5,0,19.1,0.5,28.6,1.5c57.4,8.6,111.1,31,165.9,48.1c11,3.4,22.1,6.6,33.4,9.4c6.1-2.5,12.1-5,18-7.5&#10;&#9;&#9;&#9;&#9;c19.6-8.4,38.8-17.7,58.5-25.9c30.5-11.5,62.3-19,94.6-23.6c29.8-3.4,59.6-4.5,89.4-4.5c61.3,0,122.6,4.9,183.9,5.6&#10;&#9;&#9;&#9;&#9;c4.5,0.1,9.1,0.1,13.7,0.1c88.8,0,179.4-10.3,258.9-49.9c24.8-12.3,47.8-27.1,64.5-48.7c1.7-2.1,3.2-4.4,4.5-6.6&#10;&#9;&#9;&#9;&#9;C1702.3,1559.6,1670.8,1528.1,1629,1510z" style="fill: rgb(175, 230, 228);" transform="matrix(1, 0, 0, 1, -133.36270141601565, -212.74525451660156)"/><linearGradient id="SVGID_3_" gradientUnits="userSpaceOnUse" x1="1204.9103" y1="1500.7197" x2="1204.9103" y2="1374.3289">
				<stop offset="0" style="stop-color:#F8F9FB"/>
				<stop offset="1" style="stop-color:#A0BDE5"/>
			</linearGradient><path class="st15" d="M819.6,1495.2h743.6c15,0,27.1-12.1,27.1-27.1v-16.7H819.6V1495.2z" style="fill: url('#SVGID_3_');" transform="matrix(1, 0, 0, 1, -133.36270141601565, -212.74525451660156)"/><linearGradient id="SVGID_4_" gradientUnits="userSpaceOnUse" x1="810.2682" y1="1145.916" x2="778.8917" y2="998.3396">
				<stop offset="0" style="stop-color:#2A4A93"/>
				<stop offset="1" style="stop-color:#22395E"/>
			</linearGradient><path class="st16" d="M998.2,1084.8c-7.2-8.6-15.9-15.6-23.6-23.7c-3.7-3.9-5.9-6.6-8.7-11.2c-0.5-0.8-1-1.7-1.4-2.5&#10;&#9;&#9;&#9;&#9;c0.1,0.2-1.2-2.6-1.2-2.6c-0.4-1.2-0.8-2.4-1.1-3.6c-0.1-0.3-0.5-2.7-0.6-2.7c-1.2-10.3,5.2-22.1,6.3-33.4&#10;&#9;&#9;&#9;&#9;c0.1-1.2,0.2-2.5,0.2-3.7c5.2-6.4,9.7-13,11.7-20.6c3.2-11.8,0.9-25-6.2-34.9c-7-9.8-17.7-15.8-27.9-21.8&#10;&#9;&#9;&#9;&#9;c-11.9-6.9-24.9-15.3-27.6-29.9c-0.8-4.4-7.6-2.6-6.8,1.9c4.7,25.7,33.5,31.8,50.4,47.1c9.6,8.7,14.5,21.6,11.5,34.4&#10;&#9;&#9;&#9;&#9;c-1.1,4.9-3.3,9.4-6,13.5c-2.8-18.1-13.9-34.7-26-48.1c-7.9-8.7-16.5-16.6-24.4-25.3c-3.2-3.5-5.9-6.6-8.4-10.3&#10;&#9;&#9;&#9;&#9;c-2.8-4.1-6.1-9.9-7.4-13.3c-0.8-2.2-1.6-4.5-2.1-6.7c-0.3-1.4-0.6-2.7-0.9-4.1c-0.1-0.5-0.2-0.9-0.2-1.1c0-0.2,0-0.6,0-1.1&#10;&#9;&#9;&#9;&#9;c-0.1-5.7-0.1-7.5,1.7-13c2.1-6.5-2.5-13.9-8.9-15.6c-2.6-0.7-5.2-0.6-7.5,0.3c-25.8-26.3-65.1-34.1-101.1-26.6&#10;&#9;&#9;&#9;&#9;c-44.1,9.2-80.6,40-112.9,69.6c-34.4,31.6-66.2,68.4-79.9,114c-12.7,42.5-6.9,89.3,23.1,123.2c13.8,15.5,32.7,27,53.2,30.8&#10;&#9;&#9;&#9;&#9;c26,4.8,50.7-1,76.4-4.4c-0.8,0.1,1.2-0.1,1.3-0.1c1.5-0.1,2.9-0.2,4.4-0.2c-0.1,0,2.2,0.2,2.7,0.2c0.6,0.2,1.6,0.4,2,0.5&#10;&#9;&#9;&#9;&#9;c0.3,0.2,0.8,0.5,1.3,0.7c0.3,0.3,0.9,0.8,1.3,1.2c0.2,0.2,0.4,0.5,0.5,0.7c0.5,0.8,1,1.7,1.4,2.5c0,0.2,0.8,1.9,0.9,2.1&#10;&#9;&#9;&#9;&#9;c0.3,0.7,0.5,1.5,0.7,2.2c0.7,2.3,1.3,4.6,2,6.9c1.4,4.9,2.9,9.7,5.1,14.3c8.7,18.7,28.7,28.1,47.8,32.6c11,2.6,22.3,4,33.5,5.4&#10;&#9;&#9;&#9;&#9;c12.6,1.7,25.4,2.9,38.1,3.1c24.1,0.4,48.1-3.2,70.3-12.8c19.5-8.5,37.2-22.3,48.2-40.7c11.2-18.7,15.5-41.8,10.5-63.1&#10;&#9;&#9;&#9;&#9;C1011.3,1103.6,1005.6,1093.7,998.2,1084.8z M754.9,1161.5C754.2,1160.8,754.5,1161.1,754.9,1161.5L754.9,1161.5z M787.8,1178.3&#10;&#9;&#9;&#9;&#9;C787.1,1177,787.6,1177.8,787.8,1178.3L787.8,1178.3z" style="fill: url('#SVGID_4_');" transform="matrix(1, 0, 0, 1, -133.36270141601565, -212.74525451660156)"/><linearGradient id="SVGID_5_" gradientUnits="userSpaceOnUse" x1="893.6388" y1="718.0214" x2="893.0246" y2="716.9421">
				<stop offset="0" style="stop-color:#2A4A93"/>
				<stop offset="1" style="stop-color:#22395E"/>
			</linearGradient><path class="st17" d="M893.4,717.7c0.4,0.2,0.8,0.4,1.2,0.6c0,0,0.1,0,0.1,0C891.8,717,891.4,716.8,893.4,717.7z" style="fill: url('#SVGID_5_');" transform="matrix(1, 0, 0, 1, -133.36270141601565, -212.74525451660156)"/><linearGradient id="SVGID_6_" gradientUnits="userSpaceOnUse" x1="911.4933" y1="728.5081" x2="910.8023" y2="727.2938">
				<stop offset="0" style="stop-color:#2A4A93"/>
				<stop offset="1" style="stop-color:#22395E"/>
			</linearGradient><path class="st18" d="M911.3,728.2c0.3,0.3,0.6,0.5,0.9,0.8c0.1,0,0.1,0,0.2,0C909.9,727.1,909.6,726.8,911.3,728.2z" style="fill: url('#SVGID_6_');" transform="matrix(1, 0, 0, 1, -133.36270141601565, -212.74525451660156)"/><linearGradient id="SVGID_7_" gradientUnits="userSpaceOnUse" x1="935.4185" y1="819.9817" x2="935.0005" y2="819.2471">
				<stop offset="0" style="stop-color:#2A4A93"/>
				<stop offset="1" style="stop-color:#22395E"/>
			</linearGradient><path class="st19" d="M935.8,818.6c-0.2,0.4-0.4,0.9-0.6,1.3C934.5,821.6,934.7,821.2,935.8,818.6z" style="fill: url('#SVGID_7_');" transform="matrix(1, 0, 0, 1, -133.36270141601565, -212.74525451660156)"/><linearGradient id="SVGID_8_" gradientUnits="userSpaceOnUse" x1="946.8036" y1="789.3186" x2="893.7796" y2="696.141">
				<stop offset="0" style="stop-color:#2A4A93"/>
				<stop offset="1" style="stop-color:#22395E"/>
			</linearGradient><path class="st20" d="M941.9,700.3c-12.3-10.5-25.8-18.3-41.1-23.6c-10.2-3.5-23,4-25.3,14.4c-2.6,11.5,3.5,21.5,14.4,25.3&#10;&#9;&#9;&#9;&#9;c0.8,0.3,3.9,1.9,4.8,1.8c-0.4-0.2-0.8-0.4-1.2-0.6c-2-0.9-1.6-0.7,1.3,0.5c0,0-0.1,0-0.1,0c0.4,0.2,0.8,0.3,1.1,0.5&#10;&#9;&#9;&#9;&#9;c3.1,1.5,6.2,3.2,9.1,5c1,0.6,6,4.9,7.3,5.1c-0.3-0.3-0.6-0.5-0.9-0.8c-1.7-1.4-1.3-1.1,1.1,0.8c0,0-0.1,0-0.2,0&#10;&#9;&#9;&#9;&#9;c0.4,0.3,0.7,0.6,1.1,0.9c1.3,1.1,2.6,2.3,3.8,3.5c2.5,2.4,4.9,4.9,7.1,7.6c0.8,1,1.6,2,2.5,3c-4-4.6-0.2-0.1,0.6,1.1&#10;&#9;&#9;&#9;&#9;c2,2.9,3.8,5.8,5.4,8.9c0.8,1.5,1.6,3.1,2.3,4.6c0.1,0.3,0.3,0.6,0.4,0.9c-0.1-0.1-0.1-0.3-0.2-0.4c-0.6-1.5-0.3-0.8,0.8,1.9&#10;&#9;&#9;&#9;&#9;c-0.2-0.5-0.4-1-0.7-1.5c1.1,3.1,2.3,6.2,3.1,9.4c0.5,1.8,0.9,3.7,1.3,5.5c0.3,1.3,1.4,4.4,1,5.6c-0.4-3.1-0.5-3.5-0.2-1.2&#10;&#9;&#9;&#9;&#9;c0.1,0.9,0.2,1.9,0.3,2.8c0.1,1.4,0.2,2.8,0.2,4.3c0.1,3.8,0,7.6-0.3,11.4c-0.1,0.9-0.2,1.9-0.3,2.8c-0.3,2.3-0.2,1.9,0.2-1.2&#10;&#9;&#9;&#9;&#9;c0.5,0.9-0.8,4.6-1,5.6c-0.7,3.3-1.5,6.5-2.6,9.6c-0.6,1.8-1.3,3.6-1.9,5.4c-0.1,0.1-0.1,0.2-0.1,0.4c0.2-0.4,0.4-0.9,0.6-1.3&#10;&#9;&#9;&#9;&#9;c-1.1,2.5-1.3,3-0.6,1.3c-0.2,0.4-0.4,0.9-0.6,1.3c-1.6,3.4-3.5,6.8-5.5,10c-5.7,9.2-2.3,23.1,7.4,28.2&#10;&#9;&#9;&#9;&#9;c10.1,5.3,22.1,2.4,28.2-7.4C994.6,803.6,985.4,737.5,941.9,700.3z" style="fill: url('#SVGID_8_');" transform="matrix(1, 0, 0, 1, -133.36270141601565, -212.74525451660156)"/><linearGradient id="SVGID_9_" gradientUnits="userSpaceOnUse" x1="935.8008" y1="760.0042" x2="935.0089" y2="758.6124">
				<stop offset="0" style="stop-color:#2A4A93"/>
				<stop offset="1" style="stop-color:#22395E"/>
			</linearGradient><path class="st21" d="M935.3,759c0.1,0.1,0.1,0.3,0.2,0.4c0.2,0.5,0.5,1,0.7,1.5C935,758.2,934.7,757.6,935.3,759z" style="fill: url('#SVGID_9_');" transform="matrix(1, 0, 0, 1, -133.36270141601565, -212.74525451660156)"/><linearGradient id="SVGID_10_" gradientUnits="userSpaceOnUse" x1="865.1976" y1="1131.46" x2="909.7484" y2="1035.5941">
				<stop offset="0" style="stop-color:#F47D7D"/>
				<stop offset="1" style="stop-color:#E56767"/>
			</linearGradient><path class="st22" d="M807.6,1059.1c-18.9-17.5,0-89,0-89l4.9-53.3l-78.8-31.1c0,0,1.8,154.6-143.6,211.9&#10;&#9;&#9;&#9;&#9;c-149.5,59-107,344.6-107,344.6l567.6,9.2c0,0,0-258.3-76.8-338.4C938.6,1076.2,826.5,1076.6,807.6,1059.1z" style="fill: url('#SVGID_10_');" transform="matrix(1, 0, 0, 1, -133.36270141601565, -212.74525451660156)"/><linearGradient id="SVGID_11_" gradientUnits="userSpaceOnUse" x1="858.8507" y1="904.6716" x2="782.017" y2="783.0932">
				<stop offset="0" style="stop-color:#F47D7D"/>
				<stop offset="1" style="stop-color:#E56767"/>
			</linearGradient><path class="st23" d="M890,672.9c-212.6-27.6-220.3,132.7-212.1,221.9c8.2,89.1,125.3,134.8,173.5,140.1&#10;&#9;&#9;&#9;&#9;c36.6,4,54-40.8,67.5-98.7l14.4-69.4c3-15,6.2-30,9.6-44.4C966.1,724.8,890,672.9,890,672.9z" style="fill: url('#SVGID_11_');" transform="matrix(1, 0, 0, 1, -133.36270141601565, -212.74525451660156)"/><linearGradient id="SVGID_12_" gradientUnits="userSpaceOnUse" x1="742.4006" y1="1298.7565" x2="810.2839" y2="1443.7775">
				<stop offset="0" style="stop-color:#F8F9FB"/>
				<stop offset="1" style="stop-color:#A0BDE5"/>
			</linearGradient><path class="st24" d="M964.1,1104.3c-30.1-23-87.5-31-126.2-37.3c0-0.1,0.1-0.2,0.1-0.4c1.4-6.8-0.6-13.7-5.8-18.4&#10;&#9;&#9;&#9;&#9;c-10.1-8.9-24-6-33.6,1.8c-2.1,1.7-4,3.6-6,5.4c-0.8,0.8-1.6,1.6-2.5,2.3c0,0,0,0-0.1,0c-0.2,0.1-0.6,0.4-1.2,0.8&#10;&#9;&#9;&#9;&#9;c-0.6,0.4-1.2,0.7-1.7,0.9c-0.2-0.3-0.4-0.7-0.5-1c-2.5-4.8-4.9-9.5-9.9-12.3c-5.5-3.2-12.1-3.1-17.8-0.3&#10;&#9;&#9;&#9;&#9;c-3.3,1.6-6.1,4.1-8.7,6.7c-0.9,0.9-1.8,1.9-2.7,2.8c-2.5-4-5.1-7.8-9.4-10.2c-10.2-5.7-19.7-0.5-28.6,4.8&#10;&#9;&#9;&#9;&#9;c-0.3,0.2-0.6,0.3-0.8,0.5c-0.4-1.4-0.8-2.8-1.2-4.2c-1.9-6.2-5.1-12.3-10.8-15.8c-6-3.6-13.4-4.2-20.1-2.2&#10;&#9;&#9;&#9;&#9;c-14.6,4.4-20.4,18.4-23.3,32.1c-17.1,14.5-37.9,27.4-63.1,37.3c-149.5,59-107,344.6-107,344.6l567.6,9.2&#10;&#9;&#9;&#9;&#9;C1050.7,1451.4,1050.7,1170.4,964.1,1104.3z" style="fill: url('#SVGID_12_');" transform="matrix(1, 0, 0, 1, -133.36270141601565, -212.74525451660156)"/><linearGradient id="SVGID_13_" gradientUnits="userSpaceOnUse" x1="951.2682" y1="1256.6613" x2="929.9728" y2="1362.9891">
				<stop offset="0" style="stop-color:#3576EE"/>
				<stop offset="1" style="stop-color:#296BCC"/>
			</linearGradient><path class="st25" d="M964.1,1104.3c-27-20.7-75.9-29.2-113.7-35.3c10.2,45.8,16.5,89.3,20.1,135.7c3.8,48.5,4.2,97.2,1.8,145.7&#10;&#9;&#9;&#9;&#9;c-1.2,24.3-3.1,48.6-5.7,72.8c-0.9,8.8-2,17.1-3.1,25.2l187.2,3C1050.7,1451.4,1050.7,1170.4,964.1,1104.3z" style="fill: url('#SVGID_13_');" transform="matrix(1, 0, 0, 1, -133.36270141601565, -212.74525451660156)"/><linearGradient id="SVGID_14_" gradientUnits="userSpaceOnUse" x1="616.5712" y1="1322.5582" x2="722.7402" y2="1453.9514">
				<stop offset="0" style="stop-color:#3576EE"/>
				<stop offset="1" style="stop-color:#296BCC"/>
			</linearGradient><path class="st26" d="M739.1,1228.4c-27.7-46.4-59.3-90.3-85.6-137.5c-4-7.2-7.8-14.4-11.5-21.7c-14.8,10.9-32,20.6-51.9,28.5&#10;&#9;&#9;&#9;&#9;c-149.5,59-107,344.6-107,344.6l321.1,5.2c2-23.5,0.3-47-3.9-70.2C790.6,1324.1,766.6,1274.4,739.1,1228.4z" style="fill: url('#SVGID_14_');" transform="matrix(1, 0, 0, 1, -133.36270141601565, -212.74525451660156)"/><path class="st27" d="M1185.5,1178.2c-28,17.5-47.3,47.3-75.3,84.1c-28,36.8-285.5,173.4-285.5,173.4l-166.4-238.2L541,1334&#10;&#9;&#9;&#9;&#9;c0,0,215.4,250.5,262.7,252.2c47.3,1.8,353.8-266.2,353.8-266.2c145.4-33.3,138.4-141.9,138.4-141.9S1213.6,1160.6,1185.5,1178.2&#10;&#9;&#9;&#9;&#9;z" style="fill: rgb(244, 125, 125);" transform="matrix(1, 0, 0, 1, -133.36270141601565, -212.74525451660156)"/><path class="st12" d="M899.5,1395c-42.7,23.6-74.7,40.6-74.7,40.6l-176.3-206.4l-83.8,105.7c0,0,191.8,249.6,239.1,251.3&#10;&#9;&#9;&#9;&#9;c19.3,0.7,81.6-43.4,148.7-95.9C913.7,1455.4,902.6,1416.5,899.5,1395z" style="fill: rgb(248, 249, 251);" transform="matrix(1, 0, 0, 1, -133.36270141601565, -212.74525451660156)"/><path class="st28" d="M854.3,1419.7c-18.2,9.9-29.6,15.9-29.6,15.9l-166.4-238.2L541,1334c0,0,215.4,250.5,262.7,252.2&#10;&#9;&#9;&#9;&#9;c15.6,0.6,59.7-28.4,111.5-67.3C882,1494.9,862.2,1443.8,854.3,1419.7z" style="fill: rgb(53, 118, 238);" transform="matrix(1, 0, 0, 1, -133.36270141601565, -212.74525451660156)"/><linearGradient id="SVGID_15_" gradientUnits="userSpaceOnUse" x1="1392.5045" y1="1282.5428" x2="1409.3273" y2="1734.6163">
				<stop offset="0" style="stop-color:#F8F9FB"/>
				<stop offset="1" style="stop-color:#A0BDE5"/>
			</linearGradient><path class="st29" d="M1692.5,1054.3l-468.5-0.5c-20.2,0-37.9,13.3-43.6,32.6l-106.9,365.1H1591l118.1-374.3&#10;&#9;&#9;&#9;&#9;C1712.7,1065.8,1704.3,1054.3,1692.5,1054.3z" style="fill: url('#SVGID_15_');" transform="matrix(1, 0, 0, 1, -133.36270141601565, -212.74525451660156)"/><linearGradient id="SVGID_16_" gradientUnits="userSpaceOnUse" x1="675.6341" y1="920.0018" x2="734.742" y2="597.6276">
				<stop offset="0" style="stop-color:#2A4A93"/>
				<stop offset="1" style="stop-color:#22395E"/>
			</linearGradient><path class="st30" d="M918.8,698c0-2-1.5-3.1-3-3.3c-1-3-2.7-5.9-5.1-8.5c-44.5-48.9-117.7-64-180.2-47.4&#10;&#9;&#9;&#9;&#9;c-64,17-115.9,67.3-145.1,125.5c-7.7,15.3-14,31.4-19.3,47.7c-5.1,15.9-9.7,32-15.6,47.6c-0.6,1.6-1.3,3.2-1.9,4.8&#10;&#9;&#9;&#9;&#9;c-0.3,0.7-0.7,1.5-1,2.2c-1.4,3.2-3,6.3-4.6,9.3c-12.1,10.6-26.6,19.2-38.7,28.9c-11.1,8.8-21.3,19.3-27.2,32.3&#10;&#9;&#9;&#9;&#9;c-6.1,13.4-6.3,27.5-1.4,41.3c4.8,13.5,11.9,26.3,18.8,39c-20.5,28.1-51.5,50.2-62.2,84.4c-14.6,46.4,20.2,98.7,67.1,107.6&#10;&#9;&#9;&#9;&#9;c2.5,0.5,5,0.8,7.5,1c18.9,11.1,41.1,17.3,62.2,21.1c8.1,1.5,16.2,2.7,24.4,3.8c1.6,0.2,3.2,0.4,4.7,0.5&#10;&#9;&#9;&#9;&#9;c11.9,1.9,23.9,2,35.8,0.5c12.6,1.1,25.7-1.3,37.1-6.4c26.3-11.8,39.5-40.5,42.7-67.5c3.5-29.6-8.3-59-21.1-85&#10;&#9;&#9;&#9;&#9;c-3-6-6-11.9-8.8-17.9c-1.1-2.4-2.2-4.7-3.2-7.1c-0.2-0.6-0.6-1.3-0.8-1.9c-0.8-1.9-1.5-3.8-2.2-5.7c-2-5.6-3.4-11.3-4.6-17.2&#10;&#9;&#9;&#9;&#9;c0-0.5-0.2-1.1-0.2-1.5c0-0.3,0-0.7-0.1-1c4.7-9,13.8-16.2,22.4-21.1c14-8,28.6-14.3,41.4-24.2c11.6-9,21.6-20.2,26.9-34.1&#10;&#9;&#9;&#9;&#9;c6.5-17.2,3.6-35.9,0-53.4c-1.2-5.8-2.5-11.6-3.5-17.5c-0.2-2-0.4-4-0.5-6c-0.2-3.2-0.3-6.4-0.3-9.6c0-1.5,0.1-2.9,0.2-4.4&#10;&#9;&#9;&#9;&#9;c0-0.2,0-0.4,0.1-0.7c0,0,0,0,0,0c0.5-2.7,1.3-5.3,2.2-7.9c0,0,0,0,0,0c0.7-1.3,1.4-2.6,2.1-3.9c0.6-1.1,1.3-2.1,2.1-3.2&#10;&#9;&#9;&#9;&#9;c0.1-0.1,0.1-0.2,0.2-0.3c1.8-2,3.6-4,5.6-5.9c0.9-0.9,1.9-1.7,2.9-2.6c0.1-0.1,0.3-0.2,0.5-0.4c0.6-0.4,2.4-1.8,2.9-2.1&#10;&#9;&#9;&#9;&#9;c1.3-0.9,2.6-1.7,3.9-2.5c2.2-1.4,4.5-2.7,6.9-3.9c1.4-0.7,2.7-1.4,4.1-2c0.5-0.2,2-0.9,2.8-1.3c0.7-0.3,1.3-0.5,1.6-0.6&#10;&#9;&#9;&#9;&#9;c1.5-0.6,3-1.1,4.5-1.7c3.5-1.3,7-2.4,10.5-3.6c3.2-1,6.3-2,9.5-3c2.6,0,5.3,0,7.9-0.1c13.8-0.5,28.2-1.7,41.5-5.6&#10;&#9;&#9;&#9;&#9;c12.1-3.6,23.4-9.9,31.4-19.8c7.8-9.6,12.6-21.3,14.9-33.3c3.1-15.6,2.4-31.6,1.4-47.4C918.8,701.3,918.9,699.7,918.8,698z&#10;&#9;&#9;&#9;&#9; M448.2,1165c-12.1-19.5-15.9-43.1-8-64.9c5.6-15.5,15.7-28.6,26.6-40.9c-5.6,9.8-9.6,20.5-11.6,31.6&#10;&#9;&#9;&#9;&#9;c-6.2,33.8,1.5,67.8,22.9,94.9c4.3,5.4,9.1,10.2,14.3,14.5C474.2,1194.3,458.3,1181.3,448.2,1165z M531.1,894&#10;&#9;&#9;&#9;&#9;c-9.8,11.3-22,20.3-31.6,31.9c-6.5,7.8-11.6,15.5-15,25.1c-2.7,7.6-3.4,15.5-2.6,23.4c-3.7-11.9-3.6-24,2.2-35.7&#10;&#9;&#9;&#9;&#9;c10.1-20.4,29.5-32.4,47.6-45.3C531.4,893.5,531.3,893.8,531.1,894z M760.2,915.6c0.6,8.1,0.2,16.3-2.2,24.3&#10;&#9;&#9;&#9;&#9;c-4.6,15.5-16.3,27.7-29.2,36.9c-13.4,9.6-29,15.4-42.7,24.4c-4.2,2.8-8.3,6.2-11.8,10c0.3-0.9,0.6-1.9,0.9-2.8c0.5-1,1-2,1.6-3&#10;&#9;&#9;&#9;&#9;c0.6-1,1.2-2,1.9-3c0.2-0.2,0.5-0.7,0.8-1.1c0.1-0.1,0.1-0.1,0.1-0.2c0.8-0.9,1.6-1.8,2.4-2.7c3-3.1,6.2-5.9,9.5-8.7&#10;&#9;&#9;&#9;&#9;c0.8-0.6,1.7-1.2,2.5-1.8c1.9-1.4,3.8-2.7,5.8-4c17.8-12.1,35.9-23.2,48.8-40.8C754.7,934.8,758.2,925.4,760.2,915.6z&#10;&#9;&#9;&#9;&#9; M885.8,789.3c-11.9,7.7-26.3,10.4-40.3,11.7c2.5-0.9,4.9-1.9,7.3-2.9c25.9-10.9,48.4-29.4,58.2-56.4c0.2-0.7,0.5-1.3,0.7-2&#10;&#9;&#9;&#9;&#9;C909.7,759.3,903.3,778,885.8,789.3z" style="fill: url('#SVGID_16_');" transform="matrix(1, 0, 0, 1, -133.36270141601565, -212.74525451660156)"/><path d="M 1428.79995 1251.199951 A 33.599998 24.6 0 0 1 1395.199951 1275.799952 A 33.599998 24.6 0 0 1 1361.599953 1251.199951 A 33.599998 24.6 0 0 1 1395.199951 1226.599951 A 33.599998 24.6 0 0 1 1428.79995 1251.199951 Z" transform="matrix(0.7294999957084656, -0.6840000152587891, 0.6840000152587891, 0.7294999957084656, -611.7388916015625, 1080.131103515625)" class="st11" style="fill: rgb(160, 189, 229);"/><path class="st31" d="M1419.8,1244.9c-5.4,16.1-22.4,28.8-37.9,28.3c-6.8-0.2-12.2-3-15.7-7.3c2.2,8.4,9.1,14.2,19.2,14.5&#10;&#9;&#9;&#9;&#9;c15.5,0.5,32.5-12.2,37.9-28.3c3-9,1.8-17.2-2.6-22.7C1421.9,1233.9,1421.7,1239.2,1419.8,1244.9z" style="fill: rgb(148, 178, 214);" transform="matrix(1, 0, 0, 1, -133.36270141601565, -212.74525451660156)"/><g transform="matrix(1, 0, 0, 1, -133.36270141601565, -212.74525451660156)">
					<linearGradient id="SVGID_17_" gradientUnits="userSpaceOnUse" x1="415.6945" y1="1103.9135" x2="398.0762" y2="1225.2328">
						<stop offset="0" style="stop-color:#3576EE"/>
						<stop offset="1" style="stop-color:#F77FA4"/>
					</linearGradient>
					<path class="st32" d="M450.5,1211.4c-3.1-5.9-6.5-11.5-9.3-17.5c-2.9-6.2-4.7-12.7-5.3-19.5c-1.2-13-0.5-25.9-3.9-38.6&#10;&#9;&#9;&#9;&#9;&#9;&#9;c-2.8-10.6-7.5-20.8-13.7-29.8c-14-20.4-35.3-35.8-59.6-41.1c-3.3-0.7-5.7,3.1-3.3,5.6c25.1,26.2,24.8,65.9,18.5,99.2&#10;&#9;&#9;&#9;&#9;&#9;&#9;c-3.9,20.4-9.8,40.3-13.7,60.7c-3.8,20.1-5.1,40.5-3.7,60.9c1.5,21.5,6,42.8,13.3,63c-0.5,1.3,0.2,3,1.5,3.9&#10;&#9;&#9;&#9;&#9;&#9;&#9;c1.5,3.5,7,2.3,6.6-1.1c21.4-10.1,41.7-23.5,57.1-41.7c16-19,26.1-43.4,25.2-68.5C459.7,1234.3,456.2,1222.5,450.5,1211.4z" style="fill: url('#SVGID_17_');"/>
					<path class="st12" d="M435.5,1235.5c-3.4,5.2-7.1,10.1-11.3,14.6c0.7-8.9,0.4-17.9-0.9-26.8c-1.6-11-5.3-21.1-9.1-31.3&#10;&#9;&#9;&#9;&#9;&#9;&#9;c6.8-12.3,10.9-25.7,12.2-39.8c0.5-5.3-7.7-5.2-8.2,0c-0.9,10.1-3.6,20-7.8,29.2c-3.4-10.9-4.3-21.8-4.9-33.3&#10;&#9;&#9;&#9;&#9;&#9;&#9;c-0.7-13.4-1.9-27-9.2-38.6c-2.8-4.5-9.9-0.3-7.1,4.1c6.3,10,7.4,21.6,8,33.2c0,0.5,0.1,1,0.1,1.4c-2.1-1.3-4.3-2.6-6.4-3.8&#10;&#9;&#9;&#9;&#9;&#9;&#9;c-4.5-2.7-8.7,4.4-4.1,7.1c3.6,2.2,7.3,4.4,10.9,6.6c0.1,0,0.1,0.1,0.2,0.1c0.6,8,1.5,15.9,3.9,23.5&#10;&#9;&#9;&#9;&#9;&#9;&#9;c3.7,11.8,9.3,22.9,12.1,35.1c0.1,0.4,0.2,0.8,0.3,1.3c-5.1-2.6-9.5-6.3-12.8-11c-3.1-4.3-10.2-0.2-7.1,4.1&#10;&#9;&#9;&#9;&#9;&#9;&#9;c5.5,7.6,12.6,13.1,21.4,16.4c0,0,0.1,0,0.1,0c1,8.4,1.1,16.9,0.2,25.4c-1.4,13.8-5.5,27.3-11.8,39.7c-2.4,4.7,4.7,8.8,7.1,4.1&#10;&#9;&#9;&#9;&#9;&#9;&#9;c5.5-10.6,9.3-22,11.4-33.7c0.5-0.2,1.1-0.5,1.6-1c7-6.7,13.2-14.2,18.5-22.4C445.5,1235.1,438.4,1231,435.5,1235.5z" style="fill: rgb(248, 249, 251);"/>
				</g><linearGradient id="SVGID_18_" gradientUnits="userSpaceOnUse" x1="290.6204" y1="1000.5094" x2="290.6204" y2="1407.1785">
						<stop offset="0" style="stop-color:#3576EE"/>
						<stop offset="1" style="stop-color:#F77FA4"/>
					</linearGradient><path class="st33" d="M392.6,1223.4c-6.8-12.3-16.3-22.2-27.7-30.2c-12.4-8.8-26.1-15.7-36.3-27.2&#10;&#9;&#9;&#9;&#9;&#9;&#9;c-9.9-11.1-16.2-25.4-17.9-40.2c-2-17.1,1-34.2,2.2-51.2c1.9-26.7-2.9-61.6-30.8-73.6c-3.4-1.4-6.4,0.9-5.9,4.5&#10;&#9;&#9;&#9;&#9;&#9;&#9;c2.8,18.8-6.6,37.4-18.6,51.2c-12.9,14.8-29.1,26-43.9,38.6c-13.7,11.6-26.7,25-34,41.7c-7.4,17.1-7.4,36.2-1.1,53.6&#10;&#9;&#9;&#9;&#9;&#9;&#9;c6.2,17.2,17.8,31.9,32.1,43.2c7.3,5.7,15,10.7,23.2,14.9c7.7,4,15.8,7.2,23.8,10.8c7.6,3.4,15.3,7.3,21.6,12.9&#10;&#9;&#9;&#9;&#9;&#9;&#9;c6.7,6,11.1,13.6,13.5,22.3c4.8,16.8,3.3,34.6,6.8,51.6c3.3,16,11.2,31.6,26.9,38.4c17.9,7.7,37.4,2.5,54.3-5.2&#10;&#9;&#9;&#9;&#9;&#9;&#9;c1.5-0.7,3.1-1.4,4.6-2.2c-1.7,8.7-3.1,17.4-4.2,26.2c-0.6,5.1,7.4,5,8,0c1.2-10.1,3-20.3,5-30.6c0.1-0.1,0.2-0.1,0.3-0.2&#10;&#9;&#9;&#9;&#9;&#9;&#9;c2.6-1.3,2.4-4.2,0.9-5.9C405.1,1318.5,417.6,1268.5,392.6,1223.4z" style="fill: url('#SVGID_18_');" transform="matrix(1, 0, 0, 1, -133.36270141601565, -212.74525451660156)"/><path class="st12" d="M367.6,1254.9c-2.1,10.2-4.8,20.2-8.2,30c-0.1-0.5-0.2-1-0.2-1.5c-2.1-13-4.5-26.2-9.3-38.5&#10;&#9;&#9;&#9;&#9;&#9;&#9;c-4.5-11.6-11.1-22.1-20.9-29.9c-0.9-0.7-1.8-1.4-2.8-2.1c2.9-9.1,3.5-18.5,2.2-28c-0.9-6.3-10.4-3.6-9.5,2.6&#10;&#9;&#9;&#9;&#9;&#9;&#9;c0.9,6.7,0.4,13.3-1.3,19.7c-6.7-4-13.7-7.4-20.6-11c-9.5-4.9-19.2-10.4-26.4-18.4c12.4-9.4,19.9-24.1,19.9-39.9&#10;&#9;&#9;&#9;&#9;&#9;&#9;c0-6.3-9.9-6.3-9.9,0c0,12.5-5.8,24.4-15.7,31.9c-4.8-9.2-5.3-19.7-2.7-30c7.2-28.7,31.1-50.3,33.4-80.7c0.5-6.3-9.4-6.3-9.9,0&#10;&#9;&#9;&#9;&#9;&#9;&#9;c-1.7,23-17.6,41.6-27.2,62.1c-3.9-7-5.6-15-4.4-23c1-6.2-8.5-8.9-9.5-2.6c-1.9,11.9,0.5,23.9,7.4,33.9&#10;&#9;&#9;&#9;&#9;&#9;&#9;c0.7,0.9,1.5,1.5,2.3,1.9c-3.9,11.7-5.4,24.7-1.2,36.4c1.7,4.9,4.3,9.2,7.4,13.2c-12.6,3.6-25.1-2.1-30.7-14.3&#10;&#9;&#9;&#9;&#9;&#9;&#9;c-2.6-5.8-11.1-0.8-8.5,5c7.6,16.7,27.4,24.7,44.5,17.9c0.7-0.3,1.3-0.7,1.7-1.1c2.2,2,4.5,3.9,6.9,5.7&#10;&#9;&#9;&#9;&#9;&#9;&#9;c16,11.7,36.8,17.5,51.3,31.1c-13.8,10.7-32.7,11.2-47.5,1.9c-5.4-3.4-10.3,5.1-5,8.5c18.6,11.7,41.9,10.1,59-3.1&#10;&#9;&#9;&#9;&#9;&#9;&#9;c0.7,1,1.4,2,2.1,3c6.6,10.4,9.9,22.5,12.4,34.4c2,9.7,3.6,19.5,4.8,29.4c-10.6-0.8-20.1-5.7-27.2-13.5c-4.3-4.7-11.2,2.3-7,7&#10;&#9;&#9;&#9;&#9;&#9;&#9;c9,9.9,21.3,15.5,34.5,16.4c0.2,0,0.5,0,0.7,0c0.1,1.4,0.2,2.8,0.3,4.2c2.4,32.8,0.1,65.8-6.9,97.9c-1.3,6.2,8.2,8.8,9.5,2.6&#10;&#9;&#9;&#9;&#9;&#9;&#9;c6.2-28.6,9-57.9,7.9-87.2c-0.3-7.3-0.7-14.6-1.5-21.9c6.7-15.3,11.8-31.1,15.2-47.5C378.4,1251.3,368.9,1248.6,367.6,1254.9z" style="fill: rgb(248, 249, 251);" transform="matrix(1, 0, 0, 1, -133.36270141601565, -212.74525451660156)"/><linearGradient id="SVGID_19_" gradientUnits="userSpaceOnUse" x1="493.101" y1="1032.3853" x2="463.4918" y2="1226.9038">
						<stop offset="0" style="stop-color:#3576EE"/>
						<stop offset="1" style="stop-color:#F77FA4"/>
					</linearGradient><path class="st34" d="M545.2,1202.7c-2.4-10.1-2.8-20.4-1.5-30.8c2.7-20.3,10.3-39.6,12.7-60c2.1-18.1-0.8-35.4-9.8-51.3&#10;&#9;&#9;&#9;&#9;&#9;&#9;c-13.2-23.1-34.8-39.9-51.6-60.3c-3.1-9.4-8.5-18.1-16.5-25c-3.9-3.4-8.9,1-6.8,5.4c4.1,8.7,9.5,16.4,15.4,23.7&#10;&#9;&#9;&#9;&#9;&#9;&#9;c4.9,15.8,3,34.1-2.3,49.6c-10.9,31.6-33.6,57.6-44.2,89.4c-4.8,14.4-7,29.8-4.3,44.9c2.6,14.3,10.8,26.6,14.4,40.5&#10;&#9;&#9;&#9;&#9;&#9;&#9;c9,34.7-30.1,53.4-52,71.3c-27,22.1-48.5,50.7-62.4,82.7c-0.4,1-0.5,2-0.3,2.9c-1.4,1.4-2.7,2.8-4,4.4&#10;&#9;&#9;&#9;&#9;&#9;&#9;c-3.4,4.4,2.8,10.5,6.3,6.1c12.9-16.5,35-18,54.3-19.4c4.1-0.3,8.2-0.6,12.4-1.1c10.7,2.4,21.6,3,32.6-0.1&#10;&#9;&#9;&#9;&#9;&#9;&#9;c9.5-2.6,17.3-8.1,23.8-15.5c6.3-7.2,11.5-15.8,19.4-21.5c13-9.5,30-10.9,45-15.7c16.6-5.3,29.9-15.6,34.9-32.9&#10;&#9;&#9;&#9;&#9;&#9;&#9;c5.7-19.4,0.4-39.7-6-58.2C551.2,1222.4,547.6,1212.8,545.2,1202.7z" style="fill: url('#SVGID_19_');" transform="matrix(1, 0, 0, 1, -133.36270141601565, -212.74525451660156)"/><path class="st12" d="M519.5,1124.5c-2.9,9.5-8.4,17.9-16,24.1c1.6-5.4,3.4-10.7,5.2-16c8.3-24.5,17-51.4,7.5-76.9&#10;&#9;&#9;&#9;&#9;&#9;&#9;c-2.2-5.9-11.7-3.3-9.5,2.6c4.2,11.4,4.5,23.1,2.7,34.7c-2-3.8-3-8-2.9-12.6c0.1-6.3-9.7-6.3-9.9,0&#10;&#9;&#9;&#9;&#9;&#9;&#9;c-0.2,9.5,3.4,18.7,10.1,25.4c-2,7.7-4.5,15.3-7,22.7c-3.8,11.3-7.7,22.7-9.7,34.5c-1.4,8.5-1.7,17.1-1.4,25.7&#10;&#9;&#9;&#9;&#9;&#9;&#9;c-8.2-6.6-13.7-16.1-14.7-26.8c-0.6-6.3-10.5-6.3-9.9,0c1.6,16.4,10.9,31.2,25.4,39.2c1.5,16.5,4.1,34,1.5,50.6&#10;&#9;&#9;&#9;&#9;&#9;&#9;c-0.8,1.1-1,2.4-0.7,3.7c-0.9,4.4-2.2,8.8-4.1,13c-5.8,13.3-16.7,21-28.6,27.5c0.7-6.7,1.8-13.3,3.4-19.9&#10;&#9;&#9;&#9;&#9;&#9;&#9;c1.5-6.2-8-8.8-9.5-2.6c-2.2,9.2-3.6,18.6-4.2,28c-3.6,1.9-7.1,3.8-10.5,5.8c-10,6-19.7,13.8-24.7,24.6&#10;&#9;&#9;&#9;&#9;&#9;&#9;c-4.8,10.4-5.5,22.8,0.8,32.8c3.4,5.3,11.9,0.4,8.5-5c-5.3-8.4-3.6-18.7,1.4-26.8c14.5,1.4,29-0.8,42.4-6.4&#10;&#9;&#9;&#9;&#9;&#9;&#9;c2.5-1,4.2-3.2,3.4-6.1c-0.6-2.3-3.6-4.5-6.1-3.4c-10.2,4.3-20.8,6.4-31.6,6.5c5.2-4.5,11.4-8,17.3-11.2&#10;&#9;&#9;&#9;&#9;&#9;&#9;c9.7-5.2,19.8-9.8,28.6-16.6c8.4-6.5,14.7-14.6,18.8-24.4c1.9-4.5,3.2-9.1,4.1-13.7c12.9-8.6,20.9-22.9,21.7-38.5&#10;&#9;&#9;&#9;&#9;&#9;&#9;c0.3-6.3-9.6-6.3-9.9,0c-0.4,9.1-4.1,17.5-10.1,24.1c0.6-12.6-0.7-25.5-1.9-38c-1.2-12.5-2.2-25.3-0.3-37.8&#10;&#9;&#9;&#9;&#9;&#9;&#9;c0.3-1.9,0.6-3.7,1-5.6c1,0.2,2.1,0,3.2-0.7c12.3-7.8,21.3-19.7,25.6-33.7C530.9,1121.1,521.4,1118.5,519.5,1124.5z" style="fill: rgb(248, 249, 251);" transform="matrix(1, 0, 0, 1, -133.36270141601565, -212.74525451660156)"/><linearGradient id="SVGID_20_" gradientUnits="userSpaceOnUse" x1="393.539" y1="1408.9126" x2="393.539" y2="1649.2019">
					<stop offset="0" style="stop-color:#6ED1CE"/>
					<stop offset="1" style="stop-color:#45A1D0"/>
				</linearGradient><path class="st35" d="M488.6,1357h-95.1h-95.1c-12.3,0-21.3,13.8-18.4,28.1l35.2,174.5c4.5,22.1,21,37.7,39.9,37.7h38.4H432&#10;&#9;&#9;&#9;&#9;&#9;c19,0,35.5-15.6,39.9-37.7l35.2-174.5C509.9,1370.8,500.9,1357,488.6,1357z" style="fill: url('#SVGID_20_');" transform="matrix(1, 0, 0, 1, -133.36270141601565, -212.74525451660156)"/><path class="st11" d="M265.4,366.4l-8.1-3.8c0-3.1-0.5-6.3-1.4-9.4l6.7-5.9c1.3-1.1,1.6-3,0.7-4.5l-1.9-3.2l-1.9-3.2&#10;&#9;&#9;&#9;c-0.9-1.5-2.7-2.1-4.3-1.5l-8.4,3.1c-2.3-2.3-4.9-4.1-7.6-5.6l0.5-8.9c0.1-1.7-1-3.3-2.7-3.7l-3.6-0.9l-3.6-0.9&#10;&#9;&#9;&#9;c-1.7-0.4-3.4,0.4-4.1,2l-3.8,8.1c-3.1,0-6.3,0.5-9.4,1.4l-5.9-6.7c-1.1-1.3-3-1.6-4.5-0.7l-3.2,1.9l-3.2,1.9&#10;&#9;&#9;&#9;c-1.5,0.9-2.1,2.7-1.5,4.3l3.1,8.4c-2.3,2.3-4.1,4.9-5.6,7.6l-8.9-0.5c-1.7-0.1-3.3,1-3.7,2.7l-0.9,3.6l-0.9,3.6&#10;&#9;&#9;&#9;c-0.4,1.7,0.4,3.4,2,4.1l8.1,3.8c0,3.1,0.5,6.3,1.4,9.4l-6.7,5.9c-1.3,1.1-1.6,3-0.7,4.5l1.9,3.2l1.9,3.2c0.9,1.5,2.7,2.1,4.3,1.5&#10;&#9;&#9;&#9;l8.4-3.1c2.3,2.3,4.9,4.1,7.6,5.6l-0.5,8.9c-0.1,1.7,1,3.3,2.7,3.7l3.6,0.9l3.6,0.9c1.7,0.4,3.4-0.4,4.1-2l3.8-8.1&#10;&#9;&#9;&#9;c3.1,0,6.3-0.5,9.4-1.4l5.9,6.7c1.1,1.3,3,1.6,4.5,0.7l3.2-1.9l3.2-1.9c1.5-0.9,2.1-2.7,1.5-4.3l-3.1-8.4c2.3-2.3,4.1-4.9,5.6-7.6&#10;&#9;&#9;&#9;l8.9,0.5c1.7,0.1,3.3-1,3.7-2.7l0.9-3.6l0.9-3.6C267.8,368.9,266.9,367.2,265.4,366.4z M233.9,382.4c-10.7,6.4-24.5,2.9-30.9-7.7&#10;&#9;&#9;&#9;c-6.4-10.7-2.9-24.5,7.7-30.9c10.7-6.4,24.5-2.9,30.9,7.7C248,362.2,244.5,376,233.9,382.4z" style="fill: rgb(160, 189, 229);" transform="matrix(1, 0, 0, 1, -133.36270141601565, -212.74525451660156)"/>
<path d="M 282.58367919921875 336.26788330078125 L 282.58367919921875 336.26788330078125" style="fill: rgb(255, 255, 255); fill-opacity: 0; stroke: rgb(0, 0, 0); stroke-opacity: 1; stroke-width: 0; paint-order: stroke;" transform="matrix(1, 0, 0, 1, -133.36270141601562, -212.74525451660156)"/></svg>